<?xml version="1.0" encoding="utf-8"?>
<!-- Generator: Adobe Illustrator 13.0.0, SVG Export Plug-In . SVG Version: 6.00 Build 14948)  -->
<!DOCTYPE svg PUBLIC "-//W3C//DTD SVG 1.1//EN" "http://www.w3.org/Graphics/SVG/1.1/DTD/svg11.dtd">
<svg version="1.1"
	 id="svg2" inkscape:export-filename="C:\Documents and Settings\Administrator\Desktop\Wiki\tube\Central Line.png" sodipodi:docname="Central Line.svg" xmlns:rdf="http://www.w3.org/1999/02/22-rdf-syntax-ns#" xmlns:sodipodi="http://inkscape.sourceforge.net/DTD/sodipodi-0.dtd" xmlns:dc="http://purl.org/dc/elements/1.1/" sodipodi:docbase="C:\Documents and Settings\Administrator\Desktop\Wiki\tube" xmlns:inkscape="http://www.inkscape.org/namespaces/inkscape" xmlns:cc="http://web.resource.org/cc/" inkscape:export-xdpi="96" inkscape:export-ydpi="96" xmlns:svg="http://www.w3.org/2000/svg" inkscape:version="0.43" sodipodi:version="0.32"
	 xmlns="http://www.w3.org/2000/svg" xmlns:xlink="http://www.w3.org/1999/xlink" x="0px" y="0px" width="1200px" height="720px"
	 viewBox="0 0 1200 720" enable-background="new 0 0 1200 720" xml:space="preserve">
<sodipodi:namedview  id="base" inkscape:current-layer="svg2" inkscape:window-y="66" inkscape:window-x="66" inkscape:cy="301.38616" inkscape:cx="2.8211538" inkscape:zoom="2.9384215" pagecolor="#ffffff" bordercolor="#666666" borderopacity="1.0" inkscape:pageopacity="0.0" inkscape:window-height="753" inkscape:pageshadow="2" inkscape:window-width="1005">
	</sodipodi:namedview>
<g id="lines" transform="translate(-8.000000,-42.00000)">
	<path id="path2151" fill="none" stroke="#F15B2E" stroke-width="4.5" d="M50,494.305c18.15,9.572,41.553,21.964,54.452,28.718"/>
	<path id="path2153" fill="none" stroke="#F15B2E" stroke-width="4.5" stroke-linecap="round" d="M104.452,523.022
		c12.898,6.755,9.108,5.268,22.937,11.809"/>
	<path id="path2155" fill="none" stroke="#F15B2E" stroke-width="4.5" stroke-linecap="round" d="M127.389,534.831
		c13.829,6.542,42.352,19.675,60.037,27.44"/>
	<path id="path2157" fill="none" stroke="#F15B2E" stroke-width="4.5" stroke-linecap="round" d="M187.425,562.271
		c17.685,7.765,30.949,12.924,46.074,19.149"/>
	<path id="path2159" fill="none" stroke="#F15B2E" stroke-width="4.5" stroke-linecap="round" d="M233.5,581.421
		c15.125,6.225,27.292,11.764,44.678,18.199"/>
	<path id="path2161" fill="none" stroke="#F15B2E" stroke-width="4.5" stroke-linecap="round" d="M278.178,599.62
		c17.386,6.437,38.528,13.556,59.638,20.416"/>
	<path id="path2163" fill="none" stroke="#F15B2E" stroke-width="4.5" stroke-linecap="round" d="M337.815,620.036
		c21.108,6.859,51.759,13.616,67.017,20.744"/>
	<path id="path2165" fill="none" stroke="#F15B2E" stroke-width="4.5" stroke-linecap="round" d="M404.832,640.78
		c15.259,7.128,12.633,15.8,24.533,22.022"/>
	<path id="path2167" fill="none" stroke="#F15B2E" stroke-width="4.5" stroke-linecap="round" d="M429.365,662.803
		c11.901,6.223,37.332,8.826,46.872,15.314"/>
	<path id="path2169" fill="none" stroke="#F15B2E" stroke-width="4.5" stroke-linecap="round" d="M476.237,678.117
		c9.541,6.488,4.422,21.223,10.372,23.617"/>
	<path id="path2171" fill="none" stroke="#F15B2E" stroke-width="4.5" stroke-linecap="round" d="M486.609,701.734
		c5.95,2.395,18.018-6.699,25.331-9.252"/>
	<path id="path2173" fill="none" stroke="#F15B2E" stroke-width="4.5" stroke-linecap="round" d="M511.94,692.482
		c7.313-2.553,12.466-4.36,18.549-6.062"/>
	<path id="path2175" fill="none" stroke="#F15B2E" stroke-width="4.5" stroke-linecap="round" d="M530.489,686.42
		c6.084-1.702,10.938-2.82,17.951-4.151"/>
	<path id="path2177" fill="none" stroke="#F15B2E" stroke-width="4.5" stroke-linecap="round" d="M548.44,682.269
		c7.015-1.331,14.461-2.293,24.134-3.835"/>
	<path id="path2179" fill="none" stroke="#F15B2E" stroke-width="4.5" stroke-linecap="round" d="M572.574,678.434
		c9.674-1.542,25.198-4.195,33.908-5.417"/>
	<path id="path2181" fill="none" stroke="#F15B2E" stroke-width="4.5" stroke-linecap="round" d="M606.482,673.017
		c8.709-1.222,12.665-1.167,18.35-1.911"/>
	<path id="path2183" fill="none" stroke="#F15B2E" stroke-width="4.5" stroke-linecap="round" d="M624.832,671.105
		c5.685-0.745,9.641-1.333,15.758-2.557"/>
	<path id="path2185" fill="none" stroke="#F15B2E" stroke-width="4.5" stroke-linecap="round" d="M640.59,668.549
		c6.116-1.224,13.795-3.508,20.942-4.784"/>
	<path id="path2187" fill="none" stroke="#F15B2E" stroke-width="4.5" stroke-linecap="round" d="M661.532,663.765
		c7.147-1.276,15.325-1.809,21.94-2.873"/>
	<path id="path2189" fill="none" stroke="#F15B2E" stroke-width="4.5" stroke-linecap="round" d="M683.473,660.892
		c6.615-1.065,10.205-5.008,17.751-3.519"/>
	<path id="path2191" fill="none" stroke="#F15B2E" stroke-width="4.5" stroke-linecap="round" d="M701.224,657.373
		c7.546,1.489,20.046,9.688,27.525,12.454"/>
	<path id="path2193" fill="none" stroke="#F15B2E" stroke-width="4.5" stroke-linecap="round" d="M728.749,669.827
		c7.479,2.766,12.366,5.841,17.353,4.139"/>
	<path id="path2195" sodipodi:nodetypes="cc" fill="none" stroke="#F15B2E" stroke-width="4.5" stroke-linecap="round" d="
		M746.102,673.966c4.986-1.702,5.106-9.449,12.565-14.353"/>
	<path id="path2197" fill="none" stroke="#F15B2E" stroke-width="4.5" stroke-linecap="round" d="M758.667,659.613
		c11.203-7.286,38.329-25.588,54.651-29.363"/>
	<path id="path2199" fill="none" stroke="#F15B2E" stroke-width="4.5" stroke-linecap="round" d="M813.318,630.25
		c16.322-3.776,26.428,14.473,43.281,6.707"/>
	<path id="path2201" fill="none" stroke="#F15B2E" stroke-width="4.5" stroke-linecap="round" d="M856.6,636.957
		c16.854-7.765,48.568-36.436,57.843-53.297"/>
	<path id="path2203" fill="none" stroke="#F15B2E" stroke-width="4.5" stroke-linecap="round" d="M914.442,583.66
		c9.274-16.86-6.35-33.666-2.194-47.867"/>
	<path id="path2205" fill="none" stroke="#F15B2E" stroke-width="4.5" stroke-linecap="round" d="M912.248,535.793
		c4.156-14.201,18.184-24.465,27.127-37.337"/>
	<path id="path2207" fill="none" stroke="#F15B2E" stroke-width="4.5" stroke-linecap="round" d="M939.375,498.456
		c8.941-12.872,20.145-27.446,26.527-39.894"/>
	<path id="path2209" fill="none" stroke="#F15B2E" stroke-width="4.5" stroke-linecap="round" d="M965.902,458.562
		c6.383-12.448,7.612-20.858,11.768-34.793"/>
	<path id="path2211" fill="none" stroke="#F15B2E" stroke-width="4.5" stroke-linecap="round" d="M977.67,423.77
		c4.155-13.936,6.648-30.256,13.164-48.817"/>
	<path id="path2213" fill="none" stroke="#F15B2E" stroke-width="4.5" stroke-linecap="round" d="M990.834,374.952
		c6.516-18.561,18.716-44.357,25.93-62.549"/>
	<path id="path2215" fill="none" stroke="#F15B2E" stroke-width="4.5" stroke-linecap="round" d="M1016.764,312.403
		c7.213-18.192,5.152-36.548,17.353-46.602"/>
	<path id="path2217" fill="none" stroke="#F15B2E" stroke-width="4.5" stroke-linecap="round" d="M1034.116,265.802
		c12.2-10.054,40.058,2.502,55.848-13.72"/>
	<path id="path2219" fill="none" stroke="#F15B2E" stroke-width="4.5" stroke-linecap="round" d="M1089.964,252.082
		c15.79-16.222,28.888-57.974,38.894-83.61"/>
	<path id="path2221" fill="none" stroke="#F15B2E" stroke-width="4.5" d="M1128.857,168.472
		c10.006-25.636,14.096-46.804,21.143-70.207"/>
</g>
<g id="g2223" transform="translate(-8.000000,-42.00000)">
	<path id="path2225" fill="none" stroke="#F15B2E" stroke-width="4.5" d="M321.061,667.903c13.829-2.979,27.525-4.415,41.487-8.936"
		/>
	<path id="path2227" fill="none" stroke="#F15B2E" stroke-width="4.5" stroke-linecap="round" d="M362.548,658.968
		c13.962-4.521,31.148-18.827,42.284-18.188"/>
</g>
<g id="g2229" transform="translate(-8.000000,-42.00000)">
	<path id="path2231" fill="none" stroke="#F15B2E" stroke-width="4.5" d="M990.834,374.952c6.516-10.745,5.784-26.545,19.547-32.236
		"/>
	<path id="path2233" fill="none" stroke="#F15B2E" stroke-width="4.5" stroke-linecap="round" d="M1010.381,342.716
		c13.762-5.691,46.938-3.984,63.028-1.911"/>
	<path id="path2235" fill="none" stroke="#F15B2E" stroke-width="4.5" stroke-linecap="round" d="M1073.409,340.805
		c16.089,2.074,27.591,6.535,33.509,14.353"/>
	<path id="path2237" fill="none" stroke="#F15B2E" stroke-width="4.5" stroke-linecap="round" d="M1106.918,355.158
		c5.917,7.818,2.359,23.404,1.994,32.553"/>
	<path id="path2239" fill="none" stroke="#F15B2E" stroke-width="4.5" stroke-linecap="round" d="M1108.912,387.71
		c-0.365,9.149-2.659,13.085-4.188,22.338"/>
	<path id="path2241" fill="none" stroke="#F15B2E" stroke-width="4.5" stroke-linecap="round" d="M1104.724,410.049
		c-1.529,9.255-4.555,22.336-4.986,33.187"/>
	<path id="path2243" fill="none" stroke="#F15B2E" stroke-width="4.5" stroke-linecap="round" d="M1099.737,443.235
		c-0.433,10.851,9.84,27.079,2.394,31.92"/>
	<path id="path2245" fill="none" stroke="#F15B2E" stroke-width="4.5" stroke-linecap="round" d="M1102.131,475.155
		c-7.447,4.841-32.279-2.5-47.072-2.873"/>
	<path id="path2247" fill="none" stroke="#F15B2E" stroke-width="4.5" stroke-linecap="round" d="M1055.059,472.282
		c-14.793-0.373-29.22,1.165-41.686,0.633"/>
	<path id="path2249" fill="none" stroke="#F15B2E" stroke-width="4.5" stroke-linecap="round" d="M1013.373,472.915
		c-12.467-0.531-20.777-8.079-33.11-3.822"/>
	<path id="path2251" sodipodi:nodetypes="cc" fill="none" stroke="#F15B2E" stroke-width="4.5" stroke-linecap="round" d="
		M980.263,469.093c-12.333,4.257-27.171,10.76-40.888,29.363"/>
</g>
<g id="Bank" transform="translate(-8.000000,-42.00000)">
	<circle id="intersection" fill="#FFFFFF" stroke="#000000" stroke-width="1.5" cx="738.102" cy="631.966" r="4"/>
</g>
<text transform="matrix(1 0 0 1 745.1016 636.5186)" font-family="'Verdana'" font-size="11">Bank</text>
<g id="Liverpool_Street" transform="translate(-8.000000,-42.00000)">
	<circle id="intersection_1_" fill="#FFFFFF" stroke="#000000" stroke-width="1.5" cx="750.667" cy="617.613" r="4"/>
</g>
<text transform="matrix(1 0 0 1 757.8223 624.0664)" font-family="'Verdana'" font-size="11">Liverpool Street</text>
<g id="use2266" transform="translate(49.96072,-53.64748)">
	<g id="rail" transform="matrix(0.200000,0.000000,0.000000,0.200000,-37.20000,-92.00000)">
		<rect id="body" x="4429.461" y="3547.319" fill="#808080" width="90.996" height="24.136"/>
		<circle id="boiler" fill="#808080" cx="4475.008" cy="3551.352" r="10"/>
		<circle id="wheel1" fill="#808080" stroke="#FFFFFF" stroke-width="3" cx="4445.008" cy="3573.354" r="10"/>
		<circle id="wheel2" fill="#808080" stroke="#FFFFFF" stroke-width="3" cx="4475.008" cy="3573.354" r="10"/>
		<circle id="wheel3" fill="#808080" stroke="#FFFFFF" stroke-width="3" cx="4505.008" cy="3573.354" r="10"/>
		<rect id="chimney" x="4499.115" y="3531.05" fill="#808080" width="14.141" height="23.335"/>
		<rect id="cabin" x="4431.458" y="3531.875" fill="none" stroke="#808080" stroke-width="4" width="20" height="20"/>
	</g>
</g>
<line id="line2270" fill="none" stroke="#F15B2E" stroke-width="4.5" stroke-linecap="square" x1="720.749" y1="627.827" x2="719.015" y2="632.516"/>
<text transform="matrix(1 0 0 1 705.7383 647.3407)" font-family="'Verdana'" font-size="11">St. Paul&apos;s</text>
<line id="line2278" fill="none" stroke="#F15B2E" stroke-width="4.5" stroke-linecap="square" x1="1091.737" y1="401.235" x2="1096.733" y2="401.434"/>
<text transform="matrix(1 0 0 1 1101.9629 405.788)" font-family="'Verdana'" font-size="11">Barkingside</text>
<line id="line2286" fill="none" stroke="#F15B2E" stroke-width="4.5" stroke-linecap="square" x1="1096.724" y1="368.049" x2="1101.656" y2="368.865"/>
<text transform="matrix(1 0 0 1 1106.0879 373.663)" font-family="'Verdana'" font-size="11">Fairlop</text>
<line id="line2294" fill="none" stroke="#F15B2E" stroke-width="4.5" stroke-linecap="square" x1="1094.131" y1="433.155" x2="1096.855" y2="437.347"/>
<text transform="matrix(1 0 0 1 1097.5957 450.0829)" font-family="'Verdana'" font-size="11">Newbury</text>
<text transform="matrix(1 0 0 1 1146.3965 450.0829)" font-family="'Verdana'" font-size="11"> </text>
<text transform="matrix(1 0 0 1 1097.5957 462.0829)" font-family="'Verdana'" font-size="11">Park</text>
<line id="line2302" fill="none" stroke="#F15B2E" stroke-width="4.5" stroke-linecap="square" x1="805.318" y1="588.25" x2="804.191" y2="583.379"/>
<text transform="matrix(1 0 0 1 778.3477 565.1776)" font-family="'Verdana'" font-size="11">Bethnal</text>
<text transform="matrix(1 0 0 1 820.3223 565.1776)" font-family="'Verdana'" font-size="11"> </text>
<text transform="matrix(1 0 0 1 784.6231 577.1776)" font-family="'Verdana'" font-size="11">Green</text>
<g id="Mile_End" transform="translate(-8.000000,-42.00000)">
	<circle id="intersection_2_" fill="#FFFFFF" stroke="#000000" stroke-width="1.5" cx="848.6" cy="594.957" r="4"/>
</g>
<text transform="matrix(1 0 0 1 855.6661 602.8143)" font-family="'Verdana'" font-size="11">Mile End</text>
<g id="Bond_Street" transform="translate(-8.000000,-42.00000)">
	<circle id="intersection_3_" fill="#FFFFFF" stroke="#000000" stroke-width="1.5" cx="616.832" cy="629.105" r="4"/>
</g>
<text transform="matrix(1 0 0 1 599.6729 643.2596)" font-family="'Verdana'" font-size="11">Bond</text>
<text transform="matrix(1 0 0 1 627.7051 643.2596)" font-family="'Verdana'" font-size="11"> </text>
<text transform="matrix(1 0 0 1 598.628 655.2596)" font-family="'Verdana'" font-size="11">Street</text>
<line id="line2326" fill="none" stroke="#F15B2E" stroke-width="4.5" stroke-linecap="square" x1="598.482" y1="631.016" x2="597.788" y2="626.064"/>
<text transform="matrix(1 0 0 1 559.3043 610.1542)" font-family="'Verdana'" font-size="11">Marble</text>
<text transform="matrix(1 0 0 1 596.3004 610.1542)" font-family="'Verdana'" font-size="11"> </text>
<text transform="matrix(1 0 0 1 575.2618 622.1542)" font-family="'Verdana'" font-size="11">Arch</text>
<g id="Oxford_Circus" transform="translate(-8.000000,-42.00000)">
	<circle id="intersection_4_" fill="#FFFFFF" stroke="#000000" stroke-width="1.5" cx="632.59" cy="626.549" r="4"/>
</g>
<text transform="matrix(1 0 0 1 601.2803 607.1337)" font-family="'Verdana'" font-size="11">Oxford</text>
<text transform="matrix(1 0 0 1 638.5401 607.1337)" font-family="'Verdana'" font-size="11"> </text>
<text transform="matrix(1 0 0 1 608.5909 619.1337)" font-family="'Verdana'" font-size="11">Circus</text>
<line id="line2343" fill="none" stroke="#F15B2E" stroke-width="4.5" stroke-linecap="square" x1="1008.764" y1="270.403" x2="1004.115" y2="268.56"/>
<text transform="matrix(1 0 0 1 938.2403 262.8007)" font-family="'Verdana'" font-size="11">Buckhurst</text>
<text transform="matrix(1 0 0 1 993.6641 262.8007)" font-family="'Verdana'" font-size="11"> </text>
<text transform="matrix(1 0 0 1 980.209 274.8007)" font-family="'Verdana'" font-size="11">Hill</text>
<line id="line2353" fill="none" stroke="#F15B2E" stroke-width="4.5" stroke-linecap="square" x1="1026.116" y1="223.802" x2="1022.937" y2="219.943"/>
<text transform="matrix(1 0 0 1 978.9942 214.6522)" font-family="'Verdana'" font-size="11">Loughton</text>
<line id="line2361" fill="none" stroke="#F15B2E" stroke-width="4.5" stroke-linecap="square" x1="982.834" y1="332.952" x2="978.559" y2="330.36"/>
<text transform="matrix(1 0 0 1 920.2208 330.8749)" font-family="'Verdana'" font-size="11">Woodford</text>
<line id="line2369" fill="none" stroke="#F15B2E" stroke-width="4.5" stroke-linecap="square" x1="693.224" y1="615.373" x2="694.192" y2="610.468"/>
<text transform="matrix(1 0 0 1 691.9141 593.2284)" font-family="'Verdana'" font-size="11">Chancery</text>
<text transform="matrix(1 0 0 1 743.6114 593.2284)" font-family="'Verdana'" font-size="11"> </text>
<text transform="matrix(1 0 0 1 691.9141 605.2284)" font-family="'Verdana'" font-size="11">Lane</text>
<g id="Holborn" transform="translate(-8.000000,-42.00000)">
	<circle id="intersection_5_" fill="#FFFFFF" stroke="#000000" stroke-width="1.5" cx="675.473" cy="618.891" r="4"/>
</g>
<text transform="matrix(1 0 0 1 647.8751 610.7362)" font-family="'Verdana'" font-size="11">Holborn</text>
<line id="line2384" fill="none" stroke="#F15B2E" stroke-width="4.5" stroke-linecap="square" x1="1065.409" y1="298.805" x2="1066.048" y2="293.846"/>
<text transform="matrix(1 0 0 1 1044.1436 286.4286)" font-family="'Verdana'" font-size="11">Chigwell</text>
<line id="line2392" fill="none" stroke="#F15B2E" stroke-width="4.5" stroke-linecap="square" x1="1098.918" y1="313.158" x2="1102.904" y2="310.14"/>
<text transform="matrix(1 0 0 1 1107.0225 306.66)" font-family="'Verdana'" font-size="11">Grange</text>
<text transform="matrix(1 0 0 1 1147.0264 306.66)" font-family="'Verdana'" font-size="11"> </text>
<text transform="matrix(1 0 0 1 1107.0225 318.66)" font-family="'Verdana'" font-size="11">Hill</text>
<line id="line2404" fill="none" stroke="#F15B2E" stroke-width="4.5" stroke-linecap="square" x1="1002.381" y1="300.716" x2="1004.291" y2="305.336"/>
<text transform="matrix(1 0 0 1 997.2266 319.6327)" font-family="'Verdana'" font-size="11">Roding</text>
<text transform="matrix(1 0 0 1 1034.9688 319.6327)" font-family="'Verdana'" font-size="11"> </text>
<text transform="matrix(1 0 0 1 997.2266 331.6327)" font-family="'Verdana'" font-size="11">Valley</text>
<line id="line2414" fill="none" stroke="#F15B2E" stroke-width="4.5" stroke-linecap="square" x1="1081.964" y1="210.082" x2="1085.547" y2="213.569"/>
<text transform="matrix(1 0 0 1 1088.6543 225.4852)" font-family="'Verdana'" font-size="11">Debden</text>
<line id="line2422" fill="none" stroke="#F15B2E" stroke-width="4.5" stroke-linecap="square" x1="1120.857" y1="126.472" x2="1125.516" y2="128.29"/>
<text transform="matrix(1 0 0 1 1129.8574 130.4716)" font-family="'Verdana'" font-size="11">Theydon</text>
<text transform="matrix(1 0 0 1 1177.0967 130.4716)" font-family="'Verdana'" font-size="11"> </text>
<text transform="matrix(1 0 0 1 1129.8574 142.4716)" font-family="'Verdana'" font-size="11">Bois</text>
<g id="Ealing_Broadway" transform="translate(-8.000000,-42.00000)">
	<circle id="intersection_6_" fill="#FFFFFF" stroke="#000000" stroke-width="1.5" cx="313.061" cy="625.903" r="4"/>
</g>
<text transform="matrix(1 0 0 1 249.7628 623.3505)" font-family="'Verdana'" font-size="11">Ealing</text>
<text transform="matrix(1 0 0 1 283.1758 623.3505)" font-family="'Verdana'" font-size="11"> </text>
<text transform="matrix(1 0 0 1 249.7628 635.3505)" font-family="'Verdana'" font-size="11">Broadway</text>
<g id="use2437" transform="translate(-74.43094,-60.70718)">
	<g id="rail_1_" transform="matrix(0.200000,0.000000,0.000000,0.200000,-37.20000,-92.00000)">
		<rect id="body_1_" x="1619.472" y="3553.475" fill="#808080" width="90.996" height="24.131"/>
		<circle id="boiler_1_" fill="#808080" cx="1665.019" cy="3557.504" r="10"/>
		<circle id="wheel1_1_" fill="#808080" stroke="#FFFFFF" stroke-width="3" cx="1635.019" cy="3579.506" r="10"/>
		<circle id="wheel2_1_" fill="#808080" stroke="#FFFFFF" stroke-width="3" cx="1665.019" cy="3579.506" r="10"/>
		<circle id="wheel3_1_" fill="#808080" stroke="#FFFFFF" stroke-width="3" cx="1695.019" cy="3579.506" r="10"/>
		<rect id="chimney_1_" x="1689.125" y="3537.201" fill="#808080" width="14.141" height="23.335"/>
		<rect id="cabin_1_" x="1621.472" y="3538.031" fill="none" stroke="#808080" stroke-width="4" width="20" height="20"/>
	</g>
</g>
<line id="line2441" fill="none" stroke="#F15B2E" stroke-width="4.5" stroke-linecap="square" x1="354.548" y1="616.968" x2="356.088" y2="621.724"/>
<text transform="matrix(1 0 0 1 342.2106 635.3318)" font-family="'Verdana'" font-size="11">West</text>
<text transform="matrix(1 0 0 1 369.1682 635.3318)" font-family="'Verdana'" font-size="11"> </text>
<text transform="matrix(1 0 0 1 342.2106 647.3318)" font-family="'Verdana'" font-size="11">Acton</text>
<line id="line2451" fill="none" stroke="#F15B2E" stroke-width="4.5" stroke-linecap="square" x1="421.365" y1="620.802" x2="419.054" y2="625.236"/>
<text transform="matrix(1 0 0 1 393.4357 636.9568)" font-family="'Verdana'" font-size="11">East</text>
<text transform="matrix(1 0 0 1 417.0632 636.9568)" font-family="'Verdana'" font-size="11"> </text>
<text transform="matrix(1 0 0 1 391.572 648.9568)" font-family="'Verdana'" font-size="11">Acton</text>
<line id="line2459" fill="none" stroke="#F15B2E" stroke-width="4.5" stroke-linecap="square" x1="396.832" y1="598.78" x2="398.557" y2="594.087"/>
<text transform="matrix(1 0 0 1 391.1252 576.2605)" font-family="'Verdana'" font-size="11">North</text>
<text transform="matrix(1 0 0 1 422.0197 576.2605)" font-family="'Verdana'" font-size="11"> </text>
<text transform="matrix(1 0 0 1 391.1252 588.2605)" font-family="'Verdana'" font-size="11">Acton</text>
<line id="line2471" fill="none" stroke="#F15B2E" stroke-width="4.5" stroke-linecap="square" x1="468.237" y1="636.117" x2="465.426" y2="640.252"/>
<text transform="matrix(1 0 0 1 427.6828 650.0623)" font-family="'Verdana'" font-size="11">White</text>
<text transform="matrix(1 0 0 1 459.426 650.0623)" font-family="'Verdana'" font-size="11"> </text>
<text transform="matrix(1 0 0 1 441.8029 662.0623)" font-family="'Verdana'" font-size="11">City</text>
<line id="line2479" fill="none" stroke="#F15B2E" stroke-width="4.5" stroke-linecap="square" x1="1142" y1="56.265" x2="1137.213" y2="54.823"/>
<line id="line2481" fill="none" stroke="#F15B2E" stroke-width="4.5" stroke-linecap="square" x1="1142" y1="56.265" x2="1146.787" y2="57.707"/>
<text transform="matrix(1 0 0 1 1124.4036 47.2703)" font-family="'Verdana'" font-size="11">Epping</text>
<line id="line2489" fill="none" stroke="#F15B2E" stroke-width="4.5" stroke-linecap="square" x1="1100.912" y1="345.71" x2="1105.908" y2="345.91"/>
<text transform="matrix(1 0 0 1 1111.2268 349.158)" font-family="'Verdana'" font-size="11">Hainault</text>
<line id="line2497" fill="none" stroke="#F15B2E" stroke-width="4.5" stroke-linecap="square" x1="1047.059" y1="430.282" x2="1046.933" y2="435.28"/>
<text transform="matrix(1 0 0 1 1030.8616 448.0935)" font-family="'Verdana'" font-size="11">Gants</text>
<text transform="matrix(1 0 0 1 1063.0237 448.0935)" font-family="'Verdana'" font-size="11"> </text>
<text transform="matrix(1 0 0 1 1040.2161 460.0935)" font-family="'Verdana'" font-size="11">Hill</text>
<line id="line2505" fill="none" stroke="#F15B2E" stroke-width="4.5" stroke-linecap="square" x1="1005.373" y1="430.915" x2="1005.586" y2="425.92"/>
<text transform="matrix(1 0 0 1 980.3947 419.9539)" font-family="'Verdana'" font-size="11">Redbridge</text>
<g id="Greenford" transform="translate(-8.000000,-42.00000)">
	<circle id="intersection_7_" fill="#FFFFFF" stroke="#000000" stroke-width="1.5" cx="225.5" cy="539.421" r="4"/>
</g>
<text transform="matrix(1 0 0 1 217.6271 531.2214)" font-family="'Verdana'" font-size="11">Greenford</text>
<g id="use2518" transform="translate(3.127190,-55.09404)">
	<g id="rail_2_" transform="matrix(0.200000,0.000000,0.000000,0.200000,-37.20000,-92.00000)">
		<rect id="body_2_" x="1569.458" y="3089.125" fill="#808080" width="90.994" height="24.131"/>
		<circle id="boiler_2_" fill="#808080" cx="1615.005" cy="3093.158" r="10"/>
		<circle id="wheel1_2_" fill="#808080" stroke="#FFFFFF" stroke-width="3" cx="1585.005" cy="3115.155" r="10"/>
		<circle id="wheel2_2_" fill="#808080" stroke="#FFFFFF" stroke-width="3" cx="1615.005" cy="3115.155" r="10"/>
		<circle id="wheel3_2_" fill="#808080" stroke="#FFFFFF" stroke-width="3" cx="1645.005" cy="3115.155" r="10"/>
		<rect id="chimney_2_" x="1639.106" y="3072.85" fill="#808080" width="14.143" height="23.335"/>
		<rect id="cabin_2_" x="1571.458" y="3073.68" fill="none" stroke="#808080" stroke-width="4" width="20" height="20"/>
	</g>
</g>
<line id="line2522" fill="none" stroke="#F15B2E" stroke-width="4.5" stroke-linecap="square" x1="179.426" y1="520.271" x2="177.415" y2="524.849"/>
<text transform="matrix(1 0 0 1 141.5413 538.2819)" font-family="'Verdana'" font-size="11">Northolt</text>
<line id="line2530" fill="none" stroke="#F15B2E" stroke-width="4.5" stroke-linecap="square" x1="270.178" y1="557.62" x2="268.442" y2="562.309"/>
<text transform="matrix(1 0 0 1 236.1614 575.2223)" font-family="'Verdana'" font-size="11">Perivale</text>
<line id="line2536" fill="none" stroke="#F15B2E" stroke-width="4.5" stroke-linecap="square" x1="329.816" y1="578.036" x2="331.361" y2="573.28"/>
<text transform="matrix(1 0 0 1 311.5442 555.5162)" font-family="'Verdana'" font-size="11">Hanger</text>
<text transform="matrix(1 0 0 1 351.4788 555.5162)" font-family="'Verdana'" font-size="11"> </text>
<text transform="matrix(1 0 0 1 320.3235 567.5162)" font-family="'Verdana'" font-size="11">Lane</text>
<g id="Tottenham_Court_Road" transform="translate(-8.000000,-42.00000)">
	<circle id="intersection_8_" fill="#FFFFFF" stroke="#000000" stroke-width="1.5" cx="653.532" cy="621.764" r="4"/>
</g>
<text transform="matrix(1 0 0 1 639.1819 637.9186)" font-family="'Verdana'" font-size="11">Tottenham</text>
<text transform="matrix(1 0 0 1 697.9045 637.9186)" font-family="'Verdana'" font-size="11"> </text>
<text transform="matrix(1 0 0 1 639.6116 649.9186)" font-family="'Verdana'" font-size="11">Court Road</text>
<line id="line2555" fill="none" stroke="#F15B2E" stroke-width="4.5" stroke-linecap="square" x1="503.941" y1="650.482" x2="502.293" y2="645.761"/>
<text transform="matrix(1 0 0 1 458.7004 629.068)" font-family="'Verdana'" font-size="11">Holland</text>
<text transform="matrix(1 0 0 1 500.1008 629.068)" font-family="'Verdana'" font-size="11"> </text>
<text transform="matrix(1 0 0 1 479.7927 641.068)" font-family="'Verdana'" font-size="11">Park</text>
<g id="Notting_Hill_Gate" transform="translate(-8.000000,-42.00000)">
	<circle id="intersection_9_" fill="#FFFFFF" stroke="#000000" stroke-width="1.5" cx="522.49" cy="644.42" r="4"/>
</g>
<text transform="matrix(1 0 0 1 498.5686 662.7838)" font-family="'Verdana'" font-size="11">Notting</text>
<text transform="matrix(1 0 0 1 538.9749 662.7838)" font-family="'Verdana'" font-size="11"> </text>
<text transform="matrix(1 0 0 1 497.0994 674.7838)" font-family="'Verdana'" font-size="11">Hill Gate</text>
<line id="line2574" fill="none" stroke="#F15B2E" stroke-width="4.5" stroke-linecap="square" x1="478.61" y1="659.734" x2="476.743" y2="664.373"/>
<text transform="matrix(1 0 0 1 428.3621 678.0992)" font-family="'Verdana'" font-size="11">Shepherd&apos;s</text>
<text transform="matrix(1 0 0 1 489.9954 678.0992)" font-family="'Verdana'" font-size="11"> </text>
<text transform="matrix(1 0 0 1 447.5154 690.0992)" font-family="'Verdana'" font-size="11">Bush</text>
<line id="line2584" fill="none" stroke="#F15B2E" stroke-width="4.5" stroke-linecap="square" x1="564.574" y1="636.433" x2="565.362" y2="641.371"/>
<text transform="matrix(1 0 0 1 539.3362 653.3502)" font-family="'Verdana'" font-size="11">Lancaster</text>
<text transform="matrix(1 0 0 1 592.676 653.3502)" font-family="'Verdana'" font-size="11"> </text>
<text transform="matrix(1 0 0 1 554.928 665.3502)" font-family="'Verdana'" font-size="11">Gate</text>
<line id="line2592" fill="none" stroke="#F15B2E" stroke-width="4.5" stroke-linecap="square" x1="540.441" y1="640.268" x2="539.509" y2="635.356"/>
<text transform="matrix(1 0 0 1 509.5295 629.3512)" font-family="'Verdana'" font-size="11">Queensway</text>
<line id="line2600" fill="none" stroke="#F15B2E" stroke-width="4.5" stroke-linecap="square" x1="904.248" y1="493.793" x2="899.573" y2="492.019"/>
<text transform="matrix(1 0 0 1 856.8303 491.2223)" font-family="'Verdana'" font-size="11">Leyton</text>
<line id="line2608" fill="none" stroke="#F15B2E" stroke-width="4.5" stroke-linecap="square" x1="931.286" y1="456.167" x2="927.281" y2="453.174"/>
<text transform="matrix(1 0 0 1 856.054 449.9586)" font-family="'Verdana'" font-size="11">Leytonstone</text>
<g id="Stratford" transform="translate(-8.000000,-42.00000)">
	<circle id="intersection_10_" fill="#FFFFFF" stroke="#000000" stroke-width="1.5" cx="906.443" cy="541.66" r="4"/>
</g>
<text transform="matrix(1 0 0 1 913.4426 545.6598)" font-family="'Verdana'" font-size="11">Stratford</text>
<g id="use2621" transform="translate(12.00000,-42.00000)">
	<g id="rail_3_" transform="matrix(0.200000,0.000000,0.000000,0.200000,-37.20000,-92.00000)">
		<rect id="body_3_" x="5018.535" y="3165.794" fill="#808080" width="90.996" height="24.131"/>
		<circle id="boiler_3_" fill="#808080" cx="5064.082" cy="3169.827" r="10"/>
		<circle id="wheel1_3_" fill="#808080" stroke="#FFFFFF" stroke-width="3" cx="5034.082" cy="3191.824" r="10"/>
		<circle id="wheel2_3_" fill="#808080" stroke="#FFFFFF" stroke-width="3" cx="5064.082" cy="3191.824" r="10"/>
		<circle id="wheel3_3_" fill="#808080" stroke="#FFFFFF" stroke-width="3" cx="5094.082" cy="3191.824" r="10"/>
		<rect id="chimney_3_" x="5088.188" y="3149.52" fill="#808080" width="14.141" height="23.335"/>
		<rect id="cabin_3_" x="5020.532" y="3150.35" fill="none" stroke="#808080" stroke-width="4" width="20" height="20"/>
	</g>
</g>
<line id="line2623" fill="none" stroke="#F15B2E" stroke-width="4.5" stroke-linecap="square" x1="957.903" y1="416.562" x2="953.453" y2="414.281"/>
<text transform="matrix(1 0 0 1 878.1624 413.3794)" font-family="'Verdana'" font-size="11">Snaresbrook</text>
<line id="line2633" fill="none" stroke="#F15B2E" stroke-width="4.5" stroke-linecap="square" x1="972.263" y1="427.092" x2="973.895" y2="431.819"/>
<text transform="matrix(1 0 0 1 962.6887 446.0093)" font-family="'Verdana'" font-size="11">Wanstead</text>
<g id="South_Ruislip" transform="translate(-8.000000,-42.00000)">
	<circle id="intersection_11_" fill="#FFFFFF" stroke="#000000" stroke-width="1.5" cx="119.389" cy="492.831" r="4"/>
</g>
<text transform="matrix(1 0 0 1 123.3455 473.2065)" font-family="'Verdana'" font-size="11">South</text>
<text transform="matrix(1 0 0 1 155.7976 473.2065)" font-family="'Verdana'" font-size="11"> </text>
<text transform="matrix(1 0 0 1 123.4343 485.2065)" font-family="'Verdana'" font-size="11">Ruislip</text>
<g id="use2646" transform="translate(-34.80071,-91.45822)">
	<g id="rail_4_" transform="matrix(0.200000,0.000000,0.000000,0.200000,-37.20000,-92.00000)">
		<rect id="body_4_" x="849.265" y="2734.358" fill="#808080" width="90.994" height="24.131"/>
		<circle id="boiler_4_" fill="#808080" cx="894.812" cy="2738.386" r="10"/>
		<circle id="wheel1_4_" fill="#808080" stroke="#FFFFFF" stroke-width="3" cx="864.812" cy="2760.388" r="10"/>
		<circle id="wheel2_4_" fill="#808080" stroke="#FFFFFF" stroke-width="3" cx="894.812" cy="2760.388" r="10"/>
		<circle id="wheel3_4_" fill="#808080" stroke="#FFFFFF" stroke-width="3" cx="924.81" cy="2760.388" r="10"/>
		<rect id="chimney_4_" x="918.916" y="2718.083" fill="#808080" width="14.141" height="23.335"/>
		<rect id="cabin_4_" x="851.265" y="2718.914" fill="none" stroke="#808080" stroke-width="4" width="20" height="20"/>
	</g>
</g>
<line id="line2650" fill="none" stroke="#F15B2E" stroke-width="4.5" stroke-linecap="square" x1="96.452" y1="481.022" x2="94.132" y2="485.452"/>
<text transform="matrix(1 0 0 1 62.1433 498.1273)" font-family="'Verdana'" font-size="11">Ruislip</text>
<text transform="matrix(1 0 0 1 98.2854 498.1273)" font-family="'Verdana'" font-size="11"> </text>
<text transform="matrix(1 0 0 1 59.1838 510.1273)" font-family="'Verdana'" font-size="11">Gardens</text>
<g id="West_Ruislip" transform="translate(-8.000000,-42.00000)">
	<circle id="intersection_12_" fill="#FFFFFF" stroke="#000000" stroke-width="1.5" cx="42" cy="452.304" r="4"/>
</g>
<text transform="matrix(1 0 0 1 26.0295 432.5472)" font-family="'Verdana'" font-size="11">West</text>
<text transform="matrix(1 0 0 1 52.9871 432.5472)" font-family="'Verdana'" font-size="11"> </text>
<text transform="matrix(1 0 0 1 23.3708 444.5472)" font-family="'Verdana'" font-size="11">Ruislip</text>
<g id="use2665" transform="translate(-27.35964,-66.30939)">
	<g id="rail_5_" transform="matrix(0.200000,0.000000,0.000000,0.200000,-37.20000,-92.00000)">
		<rect id="body_5_" x="499.527" y="2657.467" fill="#808080" width="90.994" height="24.131"/>
		<circle id="boiler_5_" fill="#808080" cx="545.073" cy="2661.5" r="10"/>
		<circle id="wheel1_5_" fill="#808080" stroke="#FFFFFF" stroke-width="3" cx="515.073" cy="2683.498" r="10"/>
		<circle id="wheel2_5_" fill="#808080" stroke="#FFFFFF" stroke-width="3" cx="545.073" cy="2683.498" r="10"/>
		<circle id="wheel3_5_" fill="#808080" stroke="#FFFFFF" stroke-width="3" cx="575.073" cy="2683.498" r="10"/>
		<rect id="chimney_5_" x="569.175" y="2641.193" fill="#808080" width="14.143" height="23.335"/>
		<rect id="cabin_5_" x="501.526" y="2642.023" fill="none" stroke="#808080" stroke-width="4" width="20" height="20"/>
	</g>
</g>
<line id="line2667" fill="none" stroke="#F15B2E" stroke-width="4.5" stroke-linecap="square" x1="969.67" y1="381.769" x2="964.879" y2="380.34"/>
<text transform="matrix(1 0 0 1 924.3284 374.1663)" font-family="'Verdana'" font-size="11">South</text>
<text transform="matrix(1 0 0 1 956.7815 374.1663)" font-family="'Verdana'" font-size="11"> </text>
<text transform="matrix(1 0 0 1 908.012 386.1663)" font-family="'Verdana'" font-size="11">Woodford</text>
</svg>
