<?xml version="1.0" encoding="UTF-8" standalone="no"?>
<!-- Created with Inkscape (http://www.inkscape.org/) -->
<svg
   xmlns:dc="http://purl.org/dc/elements/1.1/"
   xmlns:cc="http://web.resource.org/cc/"
   xmlns:rdf="http://www.w3.org/1999/02/22-rdf-syntax-ns#"
   xmlns:svg="http://www.w3.org/2000/svg"
   xmlns="http://www.w3.org/2000/svg"
   xmlns:xlink="http://www.w3.org/1999/xlink"
   xmlns:sodipodi="http://inkscape.sourceforge.net/DTD/sodipodi-0.dtd"
   xmlns:inkscape="http://www.inkscape.org/namespaces/inkscape"
   id="svg2"
   height="580.00000"
   width="910.00000"
   y="0.00000000"
   x="0.00000000"
   version="1.0"
   sodipodi:version="0.32"
   inkscape:version="0.40+cvs"
   sodipodi:docname="JUBILE~1.SVG"
   sodipodi:docbase="C:\DOCUME~1\ADMINI~1\Desktop\Wiki\tube"
   inkscape:export-filename="C:\Documents and Settings\Administrator\Desktop\Wiki\tube\Jubilee Line.png"
   inkscape:export-xdpi="126.59000"
   inkscape:export-ydpi="126.59000">
  <metadata
     id="metadata146">
    <rdf:RDF
       id="RDF148">
      <cc:Work
         rdf:about=""
         id="Work150">
        <dc:format
           id="format152">image/svg+xml</dc:format>
        <dc:type
           id="type154"
           rdf:resource="http://purl.org/dc/dcmitype/StillImage" />
      </cc:Work>
    </rdf:RDF>
  </metadata>
  <sodipodi:namedview
     id="base"
     pagecolor="#ffffff"
     bordercolor="#666666"
     borderopacity="1.0"
     inkscape:pageopacity="0.0"
     inkscape:pageshadow="2"
     inkscape:window-width="766"
     inkscape:window-height="584"
     inkscape:zoom="2.0000000"
     inkscape:cx="458.66669"
     inkscape:cy="224.42612"
     inkscape:window-x="483"
     inkscape:window-y="250"
     inkscape:current-layer="svg2" />
  <defs
     id="defs1575">
    <g
       id="rail"
       transform="matrix(0.200000,0.000000,0.000000,0.200000,-37.20000,-92.00000)">
      <rect
         id="body"
         style="fill:#808080;stroke:none"
         y="477.49323"
         x="186.32202"
         height="24.131897"
         width="90.994476" />
      <circle
         id="boiler"
         style="fill:#808080"
         transform="translate(231.8686,481.5260)"
         r="10.000000"
         cy="0.00000000"
         cx="0.00000000" />
      <circle
         id="wheel1"
         style="fill:#808080;stroke:#ffffff;stroke-width:3.0000000"
         transform="translate(201.8686,503.5260)"
         r="10.000000"
         cy="0.00000000"
         cx="0.00000000" />
      <circle
         id="wheel2"
         style="fill:#808080;stroke:#ffffff;stroke-width:3.0000000"
         transform="translate(231.8686,503.5260)"
         r="10.000000"
         cy="0.00000000"
         cx="0.00000000" />
      <circle
         id="wheel3"
         style="fill:#808080;stroke:#ffffff;stroke-width:3.0000000"
         transform="translate(261.8686,503.5260)"
         r="10.000000"
         cy="0.00000000"
         cx="0.00000000" />
      <rect
         id="chimney"
         style="fill:#808080"
         y="461.22095"
         x="255.97266"
         height="23.334524"
         width="14.142136" />
      <rect
         id="cabin"
         style="fill:none;stroke:#808080;stroke-width:4.0000000"
         y="462.04932"
         x="188.32202"
         height="20.000000"
         width="20.000000" />
    </g>
  </defs>
  <defs
     id="defs1585">
    <circle
       id="intersection"
       style="fill:#ffffff;stroke:#000000;stroke-width:1.5000000"
       r="4.0000000"
       cy="0.00000000"
       cx="0.00000000" />
  </defs>
  <path
     id="path1589"
     style="fill:none;stroke:#949699;stroke-width:4.5000000"
     d="M 32.057770,32.000000 C 39.002110,47.912635 45.732116,62.454305 52.890780,79.737905 C 60.049446,97.021512 68.602684,119.58357 75.009760,135.70161 C 80.328627,149.08209 91.470391,157.32254 94.299560,175.21371 C 97.617939,196.19855 79.853622,241.19019 91.984780,262.03987 C 104.11594,282.88956 144.21782,290.26013 167.08652,300.31183 C 175.19157,303.87432 186.67199,306.28078 196.92141,309.36963 C 207.17083,312.45848 226.58488,317.53264 241.15941,320.89203 C 255.73395,324.25142 271.12293,327.95094 284.36861,329.52598 C 297.61428,331.10102 310.17410,330.41031 320.63347,330.34228 C 331.09283,330.27426 339.75222,327.13097 347.12481,329.11783 C 356.54197,331.65569 361.45858,336.04610 363.84263,345.56943 C 366.02557,354.28938 356.16959,366.42958 363.32826,380.56048 C 370.48693,394.69139 396.24952,416.29458 406.79462,430.35484 C 417.33972,444.41510 420.46898,454.01710 426.59886,464.92204 C 432.72874,475.82699 433.28598,486.73193 443.57388,495.78450 C 453.86178,504.83706 472.27272,513.98697 488.32625,519.23745 C 499.13683,522.77317 508.21622,508.53135 516.87521,508.53135 C 525.53419,508.53135 530.53613,510.52158 542.49582,509.42533 C 554.45550,508.32908 570.84382,499.82676 588.63332,501.95385 C 606.42282,504.08094 631.67970,526.65146 647.01718,532.00000 C 657.15393,535.53492 667.30072,534.26246 681.73885,530.75985 C 700.19599,526.28224 733.90709,503.93966 757.09774,502.36200 C 780.28838,500.78434 808.40865,527.87925 820.88273,521.29390 C 833.35682,514.70855 831.21350,482.19256 831.94223,462.84989 C 832.67096,443.50723 830.57051,423.68577 825.25509,405.23789 C 819.93968,386.79001 808.45152,369.85438 800.04973,352.16263"
     sodipodi:nodetypes="cssssssssssssssssssssssssss" />
  <use
     xlink:href="#intersection"
     height="600.00000"
     width="1000.0000"
     y="448.35483"
     x="524.79462"
     id="Baker Street"
     transform="translate(-118.0000,-18.00000)" />
  <text
     id="text1643"
     style="font-size:11.000000;font-family:Verdana"
     y="412.93524"
     x="414.43976"><tspan
       id="tspan1645"
       y="416.93524"
       x="414.43976">Baker</tspan><tspan
       id="tspan1647"
       y="428.93524"
       x="414.43976">Street</tspan></text>
  <use
     xlink:href="#intersection"
     height="600.00000"
     width="1000.0000"
     y="482.92206"
     x="544.59888"
     id="Bond Street"
     transform="translate(-118.0000,-18.00000)" />
  <text
     id="text1650"
     style="font-size:11.000000;font-family:Verdana"
     y="453.30899"
     x="432.95374"><tspan
       id="tspan1652"
       y="457.30899"
       x="432.95374">Bond</tspan><tspan
       id="tspan1654"
       y="469.30899"
       x="432.95374">Street</tspan></text>
  <line
     x1="363.32825"
     y1="380.56049"
     x2="358.86795"
     y2="382.82007"
     style="stroke:#949699;stroke-width:4.5000000;stroke-linecap:square"
     id="line1658" />
  <text
     id="text1660"
     style="font-size:11.000000;font-style:normal;font-variant:normal;font-weight:normal;font-stretch:normal;font-family:Verdana;text-anchor:end;writing-mode:lr-tb"
     y="388.94769"
     x="354.19901"><tspan
       id="tspan1662"
       style="font-family:Verdana"
       y="392.94769"
       x="354.19901">St. John's</tspan><tspan
       id="tspan1664"
       style="font-family:Verdana"
       y="404.94769"
       x="354.19901">Wood</tspan></text>
  <line
     x1="647.01715"
     y1="532.00000"
     x2="645.53937"
     y2="536.77661"
     style="stroke:#949699;stroke-width:4.5000000;stroke-linecap:square"
     id="line1668" />
  <text
     id="text1670"
     style="font-size:11.000000;font-family:Verdana"
     y="546.19373"
     x="605.62939"><tspan
       id="tspan1672"
       y="550.19373"
       x="605.62939">Bermondsey</tspan></text>
  <use
     xlink:href="#intersection"
     height="600.00000"
     width="1000.0000"
     y="548.75983"
     x="799.73883"
     id="Canada Water"
     transform="translate(-118.0000,-18.00000)" />
  <text
     id="text1675"
     style="font-size:11.000000;font-style:normal;font-variant:normal;font-weight:normal;font-stretch:normal;font-family:Verdana;text-anchor:middle;writing-mode:lr-tb"
     y="506.24335"
     x="676.48059"><tspan
       id="tspan1677"
       style="font-family:Verdana"
       y="510.24335"
       x="676.48059">Canada</tspan><tspan
       id="tspan1679"
       style="font-family:Verdana"
       y="522.24335"
       x="676.48059">Water</tspan></text>
  <use
     xlink:href="#intersection"
     height="600.00000"
     width="1000.0000"
     y="519.95386"
     x="706.63330"
     id="London Bridge"
     transform="translate(-118.0000,-18.00000)" />
  <text
     id="text1682"
     style="font-size:11.000000;font-family:Verdana"
     y="476.79221"
     x="571.11682"><tspan
       id="tspan1684"
       y="480.79221"
       x="571.11682">London</tspan><tspan
       id="tspan1686"
       y="492.79221"
       x="571.11682">Bridge</tspan></text>
  <use
     xlink:href="#rail"
     height="600.00000"
     width="1000.0000"
     y="527.95386"
     x="746.63330"
     id="use1688"
     transform="translate(-136.5165,-43.16165)" />
  <use
     xlink:href="#intersection"
     height="600.00000"
     width="1000.0000"
     y="513.78448"
     x="561.57385"
     id="Green Park"
     transform="translate(-118.0000,-18.00000)" />
  <text
     id="text1691"
     style="font-size:11.000000;font-style:normal;font-variant:normal;font-weight:normal;font-stretch:normal;font-family:Verdana;text-anchor:middle;writing-mode:lr-tb"
     y="506.75238"
     x="427.99286"><tspan
       id="tspan1693"
       style="font-family:Verdana"
       y="510.75238"
       x="427.99286">Green</tspan><tspan
       id="tspan1695"
       style="font-family:Verdana"
       y="522.75238"
       x="427.99286">Park</tspan></text>
  <use
     xlink:href="#intersection"
     height="600.00000"
     width="1000.0000"
     y="520.36200"
     x="875.09772"
     id="Canary Wharf"
     transform="translate(-118.0000,-18.00000)" />
  <text
     id="text1698"
     style="font-size:11.000000;font-style:normal;font-variant:normal;font-weight:normal;font-stretch:normal;font-family:Verdana;text-anchor:middle;writing-mode:lr-tb"
     y="477.84549"
     x="756.35571"><tspan
       id="tspan1700"
       style="font-family:Verdana"
       y="481.84549"
       x="756.35571">Canary</tspan><tspan
       id="tspan1702"
       style="font-family:Verdana"
       y="493.84549"
       x="756.35571">Wharf</tspan></text>
  <line
     x1="820.88275"
     y1="521.29388"
     x2="823.21704"
     y2="525.71558"
     style="stroke:#949699;stroke-width:4.5000000;stroke-linecap:square"
     id="line1706" />
  <text
     id="text1708"
     style="font-size:11.000000;font-style:normal;font-variant:normal;font-weight:normal;font-stretch:normal;font-family:Verdana;text-anchor:middle;writing-mode:lr-tb"
     y="534.84247"
     x="826.59241"><tspan
       id="tspan1710"
       style="font-family:Verdana"
       y="538.84247"
       x="826.59241">North</tspan><tspan
       id="tspan1712"
       style="font-family:Verdana"
       y="550.84247"
       x="826.59241">Greenwich</tspan></text>
  <use
     xlink:href="#intersection"
     height="600.00000"
     width="1000.0000"
     y="480.84988"
     x="949.94226"
     id="Canning Town"
     transform="translate(-118.0000,-18.00000)" />
  <text
     id="text1715"
     style="font-size:11.000000;font-family:Verdana"
     y="456.39819"
     x="840.2326"><tspan
       id="tspan1717"
       y="460.39819"
       x="840.2326">Canning</tspan><tspan
       id="tspan1719"
       y="472.39819"
       x="840.2326">Town</tspan></text>
  <use
     xlink:href="#intersection"
     height="600.00000"
     width="1000.0000"
     y="423.23788"
     x="943.25507"
     id="West Ham"
     transform="translate(-118.0000,-18.00000)" />
  <text
     id="text1722"
     style="font-size:11.000000;font-family:Verdana"
     y="401.23788"
     x="832.25507"><tspan
       id="tspan1724"
       y="405.23788"
       x="832.25507">West</tspan><tspan
       id="tspan1726"
       y="417.23788"
       x="832.25507">Ham</tspan></text>
  <use
     xlink:href="#rail"
     height="600.00000"
     width="1000.0000"
     y="431.23788"
     x="983.25507"
     id="use1728"
     transform="translate(-122.5162,-23.29034)" />
  <line
     x1="52.890778"
     y1="79.737907"
     x2="57.510223"
     y2="77.824585"
     style="stroke:#949699;stroke-width:4.5000000;stroke-linecap:square"
     id="line1730" />
  <text
     id="text1734"
     style="font-size:11.000000;font-family:Verdana"
     y="69.415184"
     x="63.116623"><tspan
       id="tspan1736"
       y="73.415184"
       x="63.116623">Canons</tspan><tspan
       id="tspan1738"
       y="85.415176"
       x="63.116623">Park</tspan></text>
  <line
     x1="75.009773"
     y1="135.70161"
     x2="79.596909"
     y2="133.71213"
     style="stroke:#949699;stroke-width:4.5000000;stroke-linecap:square"
     id="line1740" />
  <text
     id="text1744"
     style="font-size:11.000000;font-family:Verdana"
     y="129.89508"
     x="82.654938"><tspan
       id="tspan1746"
       y="133.89508"
       x="82.654938">Queensbury</tspan></text>
  <line
     x1="32.057770"
     y1="32.000000"
     x2="36.640404"
     y2="30.000122"
     style="stroke:#949699;stroke-width:4.5000000;stroke-linecap:square"
     id="line1748" />
  <line
     x1="32.057770"
     y1="32.000000"
     x2="27.475143"
     y2="33.999878"
     style="stroke:#949699;stroke-width:4.5000000;stroke-linecap:square"
     id="line1750" />
  <text
     id="text1752"
     style="font-size:11.000000;font-family:Verdana"
     y="32"
     x="39.05777"><tspan
       id="tspan1754"
       y="36"
       x="39.05777">Stanmore</tspan></text>
  <line
     x1="196.92142"
     y1="309.36963"
     x2="198.25989"
     y2="304.55212"
     style="stroke:#949699;stroke-width:4.5000000;stroke-linecap:square"
     id="line1756" />
  <text
     id="text1760"
     style="font-size:11.000000;font-style:normal;font-variant:normal;font-weight:normal;font-stretch:normal;font-family:Verdana;text-anchor:middle;writing-mode:lr-tb"
     y="282.91763"
     x="198.76004"><tspan
       id="tspan1762"
       style="font-family:Verdana"
       y="286.91763"
       x="198.76004">Dollis</tspan><tspan
       id="tspan1764"
       style="font-family:Verdana"
       y="298.91763"
       x="198.76004">Hill</tspan></text>
  <line
     x1="167.08652"
     y1="300.62836"
     x2="165.03079"
     y2="305.18619"
     style="stroke:#949699;stroke-width:4.5000000;stroke-linecap:square"
     id="line1768" />
  <text
     id="text1770"
     style="font-size:11.000000;font-family:Verdana"
     y="313.21524"
     x="118.60187"><tspan
       id="tspan1772"
       y="317.21524"
       x="118.60187">Neasden</tspan></text>
  <line
     x1="241.15942"
     y1="320.89203"
     x2="240.03638"
     y2="325.76428"
     style="stroke:#949699;stroke-width:4.5000000;stroke-linecap:square"
     id="line1776" />
  <text
     id="text1778"
     style="font-size:11.000000;font-style:normal;font-variant:normal;font-weight:normal;font-stretch:normal;font-family:Verdana;text-anchor:end;writing-mode:lr-tb"
     y="335.08578"
     x="244.28842"><tspan
       id="tspan1780"
       style="font-family:Verdana"
       y="339.08578"
       x="244.28842">Willesden</tspan><tspan
       id="tspan1782"
       style="font-family:Verdana"
       y="351.08578"
       x="244.28842">Green</tspan></text>
  <use
     xlink:href="#intersection"
     height="600.00000"
     width="1000.0000"
     y="347.11783"
     x="465.12482"
     id="Finchley Road"
     transform="translate(-118.0000,-18.00000)" />
  <text
     id="text1785"
     style="font-size:11.000000;font-family:Verdana"
     y="321.95645"
     x="352.76999"><tspan
       id="tspan1787"
       y="325.95645"
       x="352.76999">Finchley Road</tspan><tspan
       id="tspan1789"
       y="337.95645"
       x="352.76999"></tspan></text>
  <text
     id="text1792"
     style="font-size:11.000000;font-family:Verdana"
     y="341.77908"
     x="374.05228"><tspan
       id="tspan1794"
       y="345.77908"
       x="374.05228">Swiss Cottage</tspan><tspan
       id="tspan1796"
       y="357.77908"
       x="374.05228"></tspan></text>
  <use
     xlink:href="#intersection"
     height="600.00000"
     width="1000.0000"
     y="348.34229"
     x="438.63345"
     id="West Hampstead"
     transform="translate(-118.0000,-18.00000)" />
  <text
     id="text1799"
     style="font-size:11.000000;font-style:normal;font-variant:normal;font-weight:normal;font-stretch:normal;font-family:Verdana;text-anchor:middle;writing-mode:lr-tb"
     y="305.18063"
     x="316.66556"><tspan
       id="tspan1801"
       style="font-family:Verdana"
       y="309.18063"
       x="316.66556">West</tspan><tspan
       id="tspan1803"
       style="font-family:Verdana"
       y="321.18063"
       x="316.66556">Hampstead</tspan></text>
  <use
     xlink:href="#rail"
     height="600.00000"
     width="1000.0000"
     y="356.34229"
     x="478.63345"
     id="use1805"
     transform="translate(-171.5497,-69.61363)" />
  <use
     xlink:href="#intersection"
     height="600.00000"
     width="1000.0000"
     y="537.23743"
     x="606.32623"
     id="Westminster"
     transform="translate(-118.0000,-18.00000)" />
  <text
     id="text1808"
     style="font-size:11.000000;font-family:Verdana"
     y="530.85046"
     x="453.39014"><tspan
       id="tspan1810"
       y="534.85046"
       x="453.39014">Westminster</tspan></text>
  <line
     x1="284.36862"
     y1="329.52597"
     x2="283.77823"
     y2="334.49100"
     style="stroke:#949699;stroke-width:4.5000000;stroke-linecap:square"
     id="line1814" />
  <text
     id="text1816"
     style="font-size:11.000000;font-family:Verdana"
     y="343.07455"
     x="259.75528"><tspan
       id="tspan1818"
       y="347.07455"
       x="259.75528">Kilburn</tspan></text>
  <line
     x1="94.299561"
     y1="175.21371"
     x2="99.255043"
     y2="174.54788"
     style="stroke:#949699;stroke-width:4.5000000;stroke-linecap:square"
     id="line1820" />
  <text
     id="text1824"
     style="font-size:11.000000;font-family:Verdana"
     y="171.98787"
     x="103.88025"><tspan
       id="tspan1826"
       y="175.98787"
       x="103.88025">Kingsbury</tspan></text>
  <use
     xlink:href="#intersection"
     height="600.00000"
     width="1000.0000"
     y="280.03989"
     x="209.98479"
     id="Wembley Park"
     transform="translate(-118.0000,-18.00000)" />
  <text
     id="text1829"
     style="font-size:11.000000;font-family:Verdana"
     y="249.13647"
     x="98.984787"><tspan
       id="tspan1831"
       y="253.13647"
       x="98.984787">Wembley</tspan><tspan
       id="tspan1833"
       y="265.13647"
       x="98.984787">Park</tspan></text>
  <line
     x1="543.12885"
     y1="510.37488"
     x2="543.58527"
     y2="515.35400"
     style="stroke:#949699;stroke-width:4.5000000;stroke-linecap:square"
     id="line1837" />
  <text
     id="text1839"
     style="font-size:11.000000;font-family:Verdana"
     y="525.2016"
     x="529.65326"><tspan
       id="tspan1841"
       y="529.2016"
       x="529.65326">Southwark</tspan></text>
  <use
     xlink:href="#intersection"
     height="600.00000"
     width="1000.0000"
     y="526.53137"
     x="634.87518"
     id="Waterloo"
     transform="translate(-118.0000,-18.00000)" />
  <text
     id="text1844"
     style="font-size:11.000000;font-family:Verdana"
     y="496.91858"
     x="492.26215"><tspan
       id="tspan1846"
       y="500.91858"
       x="492.26215">Waterloo</tspan></text>
  <use
     xlink:href="#rail"
     height="600.00000"
     width="1000.0000"
     y="522.53137"
     x="674.87518"
     id="use1848"
     transform="translate(-167.0330,-43.80653)" />
  <use
     xlink:href="#intersection"
     height="600.00000"
     width="1000.0000"
     y="370.16263"
     x="918.04974"
     id="Stratford"
     transform="translate(-118.0000,-18.00000)" />
  <text
     id="text1851"
     style="font-size:11.000000;font-family:Verdana"
     y="339.90439"
     x="773.50085"><tspan
       id="tspan1853"
       y="343.90439"
       x="773.50085">Stratford</tspan></text>
  <use
     xlink:href="#rail"
     height="600.00000"
     width="1000.0000"
     y="366.16263"
     x="958.04974"
     id="use1855"
     transform="translate(-131.5489,-30.25824)" />
  <line
     x1="368.93286"
     y1="343.42447"
     x2="364.06717"
     y2="344.57553"
     style="stroke:#949699;stroke-width:4.5000000;stroke-linecap:square"
     id="line1404" />
</svg>
