<?xml version="1.0" encoding="UTF-8" standalone="no"?>
<!-- Created with Inkscape (http://www.inkscape.org/) -->
<svg
   xmlns:svg="http://www.w3.org/2000/svg"
   xmlns="http://www.w3.org/2000/svg"
   xmlns:xlink="http://www.w3.org/1999/xlink"
   id="svg2"
   height="800.00000"
   width="1000.0000"
   y="0.00000000"
   x="0.00000000"
   version="1.0">
  <defs
     id="defs3">
    <g
       id="rail"
       transform="matrix(0.200000,0.000000,0.000000,0.200000,-37.20000,-92.00000)">
      <rect
         id="body"
         style="fill:#808080;stroke:none"
         y="477.49323"
         x="186.32202"
         height="24.131897"
         width="90.994476" />
      <circle
         id="boiler"
         style="fill:#808080"
         transform="translate(231.8686,481.5260)"
         r="10.000000"
         cy="0.00000000"
         cx="0.00000000" />
      <circle
         id="wheel1"
         style="fill:#808080;stroke:#ffffff;stroke-width:3.0000000"
         transform="translate(201.8686,503.5260)"
         r="10.000000"
         cy="0.00000000"
         cx="0.00000000" />
      <circle
         id="wheel2"
         style="fill:#808080;stroke:#ffffff;stroke-width:3.0000000"
         transform="translate(231.8686,503.5260)"
         r="10.000000"
         cy="0.00000000"
         cx="0.00000000" />
      <circle
         id="wheel3"
         style="fill:#808080;stroke:#ffffff;stroke-width:3.0000000"
         transform="translate(261.8686,503.5260)"
         r="10.000000"
         cy="0.00000000"
         cx="0.00000000" />
      <rect
         id="chimney"
         style="fill:#808080"
         y="461.22095"
         x="255.97266"
         height="23.334524"
         width="14.142136" />
      <rect
         id="cabin"
         style="fill:none;stroke:#808080;stroke-width:4.0000000"
         y="462.04932"
         x="188.32202"
         height="20.000000"
         width="20.000000" />
    </g>
    <g
       id="g2167"
       transform="matrix(0.200000,0.000000,0.000000,0.200000,-37.20000,-92.00000)">
      <rect
         id="rect2169"
         style="fill:#808080;stroke:none"
         y="477.49323"
         x="186.32202"
         height="24.131897"
         width="90.994476" />
      <circle
         id="circle2171"
         style="fill:#808080"
         transform="translate(231.8686,481.5260)"
         r="10.000000"
         cy="0.00000000"
         cx="0.00000000" />
      <circle
         id="circle2173"
         style="fill:#808080;stroke:#ffffff;stroke-width:3.0000000"
         transform="translate(201.8686,503.5260)"
         r="10.000000"
         cy="0.00000000"
         cx="0.00000000" />
      <circle
         id="circle2175"
         style="fill:#808080;stroke:#ffffff;stroke-width:3.0000000"
         transform="translate(231.8686,503.5260)"
         r="10.000000"
         cy="0.00000000"
         cx="0.00000000" />
      <circle
         id="circle2177"
         style="fill:#808080;stroke:#ffffff;stroke-width:3.0000000"
         transform="translate(261.8686,503.5260)"
         r="10.000000"
         cy="0.00000000"
         cx="0.00000000" />
      <rect
         id="rect2179"
         style="fill:#808080"
         y="461.22095"
         x="255.97266"
         height="23.334524"
         width="14.142136" />
      <rect
         id="rect2181"
         style="fill:none;stroke:#808080;stroke-width:4.0000000"
         y="462.04932"
         x="188.32202"
         height="20.000000"
         width="20.000000" />
    </g>
  </defs>
  <defs
     id="defs13">
    <circle
       id="intersection"
       style="fill:#ffffff;stroke:#000000;stroke-width:1.5000000"
       r="4.0000000"
       cy="0.00000000"
       cx="0.00000000" />
  </defs>
  <path
     id="path17"
     style="fill:none;stroke:#094fa3;stroke-width:4.5000000"
     d="M 512.18697,593.14879 C 531.48972,602.51367 549.19655,615.64954 570.09520,621.24342" />
  <path
     id="path19"
     style="fill:none;stroke:#094fa3;stroke-width:4.5000000;stroke-linecap:round"
     d="M 570.09520,621.24342 C 590.99385,626.83729 622.07586,623.91744 637.57887,626.71206" />
  <path
     id="path21"
     style="fill:none;stroke:#094fa3;stroke-width:4.5000000;stroke-linecap:round"
     d="M 637.57887,626.71206 C 653.08187,629.50668 652.54989,637.03939 663.11321,638.01113" />
  <path
     id="path23"
     style="fill:none;stroke:#094fa3;stroke-width:4.5000000;stroke-linecap:round"
     d="M 663.11321,638.01113 C 673.67653,638.98287 689.17952,634.97300 700.95876,632.54249" />
  <path
     id="path25"
     style="fill:none;stroke:#094fa3;stroke-width:4.5000000;stroke-linecap:round"
     d="M 700.95876,632.54249 C 712.73800,630.11198 724.85923,624.70364 733.78866,623.42809" />
  <path
     id="path27"
     style="fill:none;stroke:#094fa3;stroke-width:4.5000000;stroke-linecap:round"
     d="M 733.78866,623.42809 C 742.71808,622.15254 746.09984,629.14488 754.53530,624.88918" />
  <path
     id="path29"
     style="fill:none;stroke:#094fa3;stroke-width:4.5000000;stroke-linecap:round"
     d="M 754.53530,624.88918 C 762.97075,620.63347 776.38392,603.12361 784.40140,597.89385" />
  <path
     id="path31"
     style="fill:none;stroke:#094fa3;stroke-width:4.5000000;stroke-linecap:round"
     d="M 784.40140,597.89385 C 792.41888,592.66408 795.83863,596.67164 802.64019,593.51059" />
  <path
     id="path33"
     style="fill:none;stroke:#094fa3;stroke-width:4.5000000;stroke-linecap:round"
     d="M 802.64019,593.51059 C 809.44175,590.34953 818.18120,583.24355 825.21074,578.92754" />
  <path
     id="path35"
     style="fill:none;stroke:#094fa3;stroke-width:4.5000000;stroke-linecap:round"
     d="M 825.21074,578.92754 C 832.24029,574.61154 839.23183,570.41149 844.81747,567.61455" />
  <path
     id="path37"
     style="fill:none;stroke:#094fa3;stroke-width:4.5000000;stroke-linecap:round"
     d="M 844.81747,567.61455 C 850.40310,564.81761 854.96280,564.03141 858.72460,562.14591" />
  <path
     id="path39"
     style="fill:none;stroke:#094fa3;stroke-width:4.5000000;stroke-linecap:round"
     d="M 858.72460,562.14591 C 862.48640,560.26041 864.31020,560.00994 867.38800,556.30156" />
  <path
     id="path41"
     style="fill:none;stroke:#094fa3;stroke-width:4.5000000;stroke-linecap:round"
     d="M 867.38800,556.30156 C 870.46580,552.59318 877.22940,546.03452 877.19140,539.89564" />
  <path
     id="path43"
     style="fill:none;stroke:#094fa3;stroke-width:4.5000000;stroke-linecap:round"
     d="M 877.19140,539.89564 C 877.15340,533.75675 868.60400,527.61555 867.16000,519.46824" />
  <path
     id="path45"
     style="fill:none;stroke:#094fa3;stroke-width:4.5000000;stroke-linecap:round"
     d="M 867.16000,519.46824 C 865.71610,511.32094 866.40010,506.27207 868.52800,491.01183" />
  <path
     id="path47"
     style="fill:none;stroke:#094fa3;stroke-width:4.5000000;stroke-linecap:round"
     d="M 868.52800,491.01183 C 870.65580,475.75158 875.89950,441.16092 879.92720,427.90677" />
  <path
     id="path59"
     style="fill:none;stroke:#094fa3;stroke-width:4.5000000;stroke-linecap:round"
     d="M 900.67390,247.70599 C 892.50440,237.55260 876.27940,224.17321 867.38800,212.68164" />
  <path
     id="path61"
     style="fill:none;stroke:#094fa3;stroke-width:4.5000000;stroke-linecap:round"
     d="M 867.38800,212.68164 C 858.49660,201.19007 848.73120,194.01451 847.32530,178.75658" />
  <path
     id="path63"
     style="fill:none;stroke:#094fa3;stroke-width:4.5000000;stroke-linecap:round"
     d="M 847.32530,178.75658 C 845.91941,163.49866 858.45860,140.10039 858.95260,121.13408" />
  <path
     id="path65"
     style="fill:none;stroke:#094fa3;stroke-width:4.5000000;stroke-linecap:round"
     d="M 858.95260,121.13408 C 859.44650,102.16778 858.49660,76.814432 850.28910,64.958752" />
  <path
     id="path67"
     style="fill:none;stroke:#094fa3;stroke-width:4.5000000"
     d="M 850.28910,64.958752 C 842.08167,53.103071 823.23488,54.986251 809.70775,50.000000" />
  <g
     id="g69"
     transform="translate(-154.0000,0.000000)">
    <path
       id="path71"
       style="fill:none;stroke:#094fa3;stroke-width:4.5000000"
       d="M 213.63616,434.47470 C 235.44675,425.35566 265.19881,416.60305 279.06792,407.11758" />
    <path
       id="path73"
       style="fill:none;stroke:#094fa3;stroke-width:4.5000000;stroke-linecap:round"
       d="M 279.06792,407.11758 C 292.93703,397.63211 285.98350,388.32290 296.85080,377.56187" />
    <path
       id="path75"
       style="fill:none;stroke:#094fa3;stroke-width:4.5000000;stroke-linecap:round"
       d="M 296.85080,377.56187 C 307.71811,366.80085 333.02446,349.42087 344.27173,342.55144" />
    <path
       id="path77"
       style="fill:none;stroke:#094fa3;stroke-width:4.5000000;stroke-linecap:round"
       d="M 344.27173,342.55144 C 355.51900,335.68201 355.10104,339.38575 364.33444,336.34529" />
    <path
       id="path79"
       style="fill:none;stroke:#094fa3;stroke-width:4.5000000;stroke-linecap:round"
       d="M 364.33444,336.34529 C 373.56783,333.30484 384.05512,325.58427 399.67211,324.30872" />
    <path
       id="path81"
       style="fill:none;stroke:#094fa3;stroke-width:4.5000000;stroke-linecap:round"
       d="M 399.67211,324.30872 C 415.28910,323.03316 440.97548,321.45844 458.03638,328.69198" />
    <path
       id="path83"
       style="fill:none;stroke:#094fa3;stroke-width:4.5000000;stroke-linecap:round"
       d="M 458.03638,328.69198 C 475.09728,335.92552 488.81436,356.52453 502.03751,367.70997" />
    <path
       id="path85"
       style="fill:none;stroke:#094fa3;stroke-width:4.5000000;stroke-linecap:round"
       d="M 502.03751,367.70997 C 515.26065,378.89540 523.50614,387.35348 537.37525,395.80459" />
    <path
       id="path87"
       style="fill:none;stroke:#094fa3;stroke-width:4.5000000;stroke-linecap:round"
       d="M 537.37525,395.80459 C 551.24435,404.25571 571.23105,408.56707 585.25215,418.41666" />
    <path
       id="path89"
       style="fill:none;stroke:#094fa3;stroke-width:4.5000000;stroke-linecap:round"
       d="M 585.25215,418.41666 C 599.27325,428.26624 609.53262,440.49299 621.50185,454.90210" />
    <path
       id="path91"
       style="fill:none;stroke:#094fa3;stroke-width:4.5000000;stroke-linecap:round"
       d="M 621.50185,454.90210 C 633.47108,469.31120 652.88782,490.76831 657.06754,504.87129" />
    <path
       id="path93"
       style="fill:none;stroke:#094fa3;stroke-width:4.5000000;stroke-linecap:round"
       d="M 657.06754,504.87129 C 661.24727,518.97426 648.13808,529.24593 646.58018,539.51993" />
    <path
       id="path95"
       style="fill:none;stroke:#094fa3;stroke-width:4.5000000;stroke-linecap:round"
       d="M 646.58018,539.51993 C 645.02228,549.79392 644.45236,557.57711 647.72016,566.51526" />
    <path
       id="path97"
       style="fill:none;stroke:#094fa3;stroke-width:4.5000000;stroke-linecap:round"
       d="M 647.72016,566.51526 C 650.98796,575.45340 653.45780,584.02743 666.18697,593.14879" />
  </g>
  <g
     id="g99"
     transform="translate(-154.0000,0.000000)">
    <path
       id="path101"
       style="fill:none;stroke:#094fa3;stroke-width:4.5000000"
       d="M 341.07995,724.10397 C 369.35011,716.20018 404.53580,703.06663 425.89042,700.39261" />
    <path
       id="path103"
       style="fill:none;stroke:#094fa3;stroke-width:4.5000000;stroke-linecap:round"
       d="M 425.89042,700.39261 C 447.24504,697.71858 458.15039,707.99954 469.20768,708.05984" />
    <path
       id="path105"
       style="fill:none;stroke:#094fa3;stroke-width:4.5000000;stroke-linecap:round"
       d="M 469.20768,708.05984 C 480.26497,708.12013 486.80050,706.83530 492.23414,700.75440" />
    <path
       id="path107"
       style="fill:none;stroke:#094fa3;stroke-width:4.5000000;stroke-linecap:round"
       d="M 492.23414,700.75440 C 497.66779,694.67349 489.87831,685.13236 501.80955,671.57440" />
    <path
       id="path109"
       style="fill:none;stroke:#094fa3;stroke-width:4.5000000;stroke-linecap:round"
       d="M 501.80955,671.57440 C 513.74079,658.01643 549.38252,630.47146 563.82158,619.40662" />
    <path
       id="path111"
       style="fill:none;stroke:#094fa3;stroke-width:4.5000000;stroke-linecap:round"
       d="M 563.82158,619.40662 C 578.26064,608.34178 581.68038,608.52732 588.44393,605.18537" />
    <path
       id="path113"
       style="fill:none;stroke:#094fa3;stroke-width:4.5000000;stroke-linecap:round"
       d="M 588.44393,605.18537 C 595.20749,601.84342 591.44573,601.36103 604.40290,599.35493" />
    <path
       id="path115"
       style="fill:none;stroke:#094fa3;stroke-width:4.5000000;stroke-linecap:round"
       d="M 604.40290,599.35493 C 617.36007,597.34884 646.23826,589.50071 666.18697,593.14879" />
  </g>
  <g
     id="g117"
     transform="translate(-154.0000,0.000000)">
    <path
       id="path119"
       style="fill:none;stroke:#094fa3;stroke-width:4.5000000"
       d="M 341.07995,724.10397 C 318.50940,718.75592 282.82969,703.74383 273.36830,708.05984" />
    <path
       id="path121"
       style="fill:none;stroke:#094fa3;stroke-width:4.5000000;stroke-linecap:round"
       d="M 273.36830,708.05984 C 263.90690,712.37584 273.02629,747.32598 284.31157,750.00000" />
    <path
       id="path123"
       style="fill:none;stroke:#094fa3;stroke-width:4.5000000;stroke-linecap:round"
       d="M 284.31157,750.00000 C 295.59685,752.67402 317.48348,732.37186 341.07995,724.10397" />
  </g>
  <use
     xlink:href="#intersection"
     height="800.00000"
     width="1200.0000"
     y="593.14880"
     x="666.18695"
     id="Acton Town"
     transform="translate(-154.0000,0.000000)" />
  <text
     id="text127"
     style="font-size:11.000000;font-family:Verdana"
     y="574.39679"
     x="519.18695"><tspan
       id="tspan129"
       y="578.39679"
       x="519.18695">Acton</tspan><tspan
       id="tspan131"
       y="590.39679"
       x="519.18695">Town</tspan></text>
  <use
     xlink:href="#intersection"
     height="800.00000"
     width="1200.0000"
     y="566.51526"
     x="647.72015"
     id="Ealing Common"
     transform="translate(-154.0000,0.000000)" />
  <text
     id="text134"
     style="font-size:11.000000;font-style:normal;font-variant:normal;font-weight:normal;font-stretch:normal;font-family:Verdana;text-anchor:end;writing-mode:lr-tb"
     y="558.7019"
     x="487.04681"><tspan
       id="tspan136"
       style="font-family:Verdana"
       y="562.7019"
       x="487.04681">Ealing</tspan><tspan
       id="tspan138"
       style="font-family:Verdana"
       y="574.7019"
       x="487.04681">Common</tspan></text>
  <line
     x1="450.40289"
     y1="599.35492"
     x2="451.16791"
     y2="604.29608"
     style="stroke:#094fa3;stroke-width:4.5000000;stroke-linecap:square"
     id="line142" />
  <text
     id="text144"
     style="font-size:11.000000;font-family:Verdana"
     y="614.24689"
     x="437.5896"><tspan
       id="tspan146"
       y="618.24689"
       x="437.5896">South</tspan><tspan
       id="tspan148"
       y="630.24689"
       x="437.5896">Ealing</tspan></text>
  <use
     xlink:href="#intersection"
     height="800.00000"
     width="1200.0000"
     y="621.24341"
     x="724.09521"
     id="Turnham Green"
     transform="translate(-154.0000,0.000000)" />
  <text
     id="text151"
     style="font-size:11.000000;font-family:Verdana"
     y="597.41272"
     x="564.92053"><tspan
       id="tspan153"
       y="601.41272"
       x="564.92053">Turnham</tspan><tspan
       id="tspan155"
       y="613.41272"
       x="564.92053">Green</tspan></text>
  <line
     x1="467.50183"
     y1="454.90210"
     x2="471.34796"
     y2="451.70721"
     style="stroke:#094fa3;stroke-width:4.5000000;stroke-linecap:square"
     id="line157" />
  <text
     id="text161"
     style="font-size:11.000000;font-family:Verdana"
     y="445.52609"
     x="476.45514"><tspan
       id="tspan163"
       y="449.52609"
       x="476.45514">Alperton</tspan></text>
  <line
     x1="503.06757"
     y1="504.87128"
     x2="507.86145"
     y2="503.45050"
     style="stroke:#094fa3;stroke-width:4.5000000;stroke-linecap:square"
     id="line165" />
  <text
     id="text169"
     style="font-size:11.000000;font-family:Verdana"
     y="496.27661"
     x="511.63025"><tspan
       id="tspan171"
       y="500.27661"
       x="511.63025">Park</tspan><tspan
       id="tspan173"
       y="512.27661"
       x="511.63025">Royal</tspan></text>
  <line
     x1="431.25214"
     y1="418.41666"
     x2="428.37805"
     y2="422.50803"
     style="stroke:#094fa3;stroke-width:4.5000000;stroke-linecap:square"
     id="line177" />
  <text
     id="text179"
     style="font-size:11.000000;font-style:normal;font-variant:normal;font-weight:normal;font-stretch:normal;font-family:Verdana;text-anchor:middle;writing-mode:lr-tb"
     y="431.69931"
     x="413.64014"><tspan
       id="tspan181"
       style="font-family:Verdana"
       y="435.69931"
       x="413.64014">Sudbury</tspan><tspan
       id="tspan183"
       style="font-family:Verdana"
       y="447.69931"
       x="413.64014">Town</tspan></text>
  <line
     x1="847.32532"
     y1="178.75659"
     x2="842.34644"
     y2="179.21536"
     style="stroke:#094fa3;stroke-width:4.5000000;stroke-linecap:square"
     id="line187" />
  <text
     id="text189"
     style="font-size:11.000000;font-family:Verdana"
     y="172.50592"
     x="803.53864"><tspan
       id="tspan191"
       y="176.50592"
       x="803.53864">Arnos</tspan><tspan
       id="tspan193"
       y="188.50592"
       x="803.53864">Grove</tspan></text>
  <line
     x1="867.38800"
     y1="212.68164"
     x2="871.34253"
     y2="209.62192"
     style="stroke:#094fa3;stroke-width:4.5000000;stroke-linecap:square"
     id="line195" />
  <text
     id="text199"
     style="font-size:11.000000;font-family:Verdana"
     y="198.22697"
     x="875.95068"><tspan
       id="tspan201"
       y="202.22697"
       x="875.95068">Bounds</tspan><tspan
       id="tspan203"
       y="214.22697"
       x="875.95068">Green</tspan></text>
  <line
     x1="858.95258"
     y1="121.13408"
     x2="863.95093"
     y2="121.26426"
     style="stroke:#094fa3;stroke-width:4.5000000;stroke-linecap:square"
     id="line207" />
  <text
     id="text209"
     style="font-size:11.000000;font-family:Verdana"
     y="120.74342"
     x="868.29657"><tspan
       id="tspan211"
       y="124.74342"
       x="868.29657">Southgate</tspan></text>
  <text
     id="text217"
     style="font-size:11.000000;font-family:Verdana"
     y="393.55923"
     x="919.6723"><tspan
       id="tspan219"
       y="397.55923"
       x="919.6723">Arsenal</tspan></text>
  <text
     id="text225"
     style="font-size:11.000000;font-family:Verdana"
     y="416.12827"
     x="902.08502"><tspan
       id="tspan227"
       y="420.12827"
       x="902.08502">Holloway</tspan><tspan
       id="tspan229"
       y="432.12827"
       x="902.08502">Road</tspan></text>
  <text
     id="text235"
     style="font-size:11.000000;font-family:Verdana"
     y="338.71414"
     x="941.2959"><tspan
       id="tspan237"
       y="342.71414"
       x="941.2959">Manor</tspan><tspan
       id="tspan239"
       y="354.71414"
       x="941.2959">House</tspan></text>
  <use
     xlink:href="#intersection"
     height="800.00000"
     width="1200.0000"
     y="638.01111"
     x="817.11322"
     id="Barons Court"
     transform="translate(-154.0000,0.000000)" />
  <text
     id="text242"
     style="font-size:11.000000;font-family:Verdana"
     y="612.6178"
     x="657.01721"><tspan
       id="tspan244"
       y="616.6178"
       x="657.01721">Barons</tspan><tspan
       id="tspan246"
       y="628.6178"
       x="657.01721">Court</tspan></text>
  <use
     xlink:href="#intersection"
     height="800.00000"
     width="1200.0000"
     y="632.54248"
     x="854.95874"
     id="Earl's Court"
     transform="translate(-154.0000,0.000000)" />
  <text
     id="text249"
     style="font-size:11.000000;font-family:Verdana"
     y="645.43451"
     x="696.08142"><tspan
       id="tspan251"
       y="649.43451"
       x="696.08142">Earl's</tspan><tspan
       id="tspan253"
       y="661.43451"
       x="696.08142">Court</tspan></text>
  <use
     xlink:href="#intersection"
     height="800.00000"
     width="1200.0000"
     y="626.71204"
     x="791.57886"
     id="Hammersmith"
     transform="translate(-154.0000,0.000000)" />
  <text
     id="text256"
     style="font-size:11.000000;font-family:Verdana"
     y="638.82269"
     x="565.2735"><tspan
       id="tspan258"
       y="642.82269"
       x="565.2735">Hammersmith</tspan></text>
  <line
     x1="409.82159"
     y1="619.40662"
     x2="406.78033"
     y2="615.43793"
     style="stroke:#094fa3;stroke-width:4.5000000;stroke-linecap:square"
     id="line260" />
  <text
     id="text264"
     style="font-size:11.000000;font-family:Verdana"
     y="605.98395"
     x="339.70285"><tspan
       id="tspan266"
       y="609.98395"
       x="339.70285">Boston Manor</tspan><tspan
       id="tspan268"
       y="621.98395"
       x="339.70285"></tspan></text>
  <line
     x1="434.44391"
     y1="605.18536"
     x2="432.22900"
     y2="600.70270"
     style="stroke:#094fa3;stroke-width:4.5000000;stroke-linecap:square"
     id="line270" />
  <text
     id="text274"
     style="font-size:11.000000;font-family:Verdana"
     y="589.55865"
     x="386.75061"><tspan
       id="tspan276"
       y="593.55865"
       x="386.75061">Northfields</tspan></text>
  <line
     x1="347.80954"
     y1="671.57440"
     x2="344.05600"
     y2="668.27124"
     style="stroke:#094fa3;stroke-width:4.5000000;stroke-linecap:square"
     id="line278" />
  <text
     id="text282"
     style="font-size:11.000000;font-family:Verdana"
     y="657.5744"
     x="297.80954"><tspan
       id="tspan284"
       y="661.5744"
       x="297.80954">Osterley</tspan></text>
  <text
     id="text290"
     style="font-size:11.000000;font-family:Verdana"
     y="233.642"
     x="908.06451"><tspan
       id="tspan292"
       y="237.642"
       x="908.06451">Wood</tspan><tspan
       id="tspan294"
       y="249.642"
       x="908.06451">Green</tspan></text>
  <text
     id="text300"
     style="font-size:11.000000;font-style:normal;font-variant:normal;font-weight:normal;font-stretch:normal;font-family:Verdana;text-anchor:end;writing-mode:lr-tb"
     y="418.92145"
     x="870.12848"><tspan
       id="tspan302"
       style="font-family:Verdana"
       y="422.92145"
       x="870.12848">Caledonian</tspan><tspan
       id="tspan304"
       style="font-family:Verdana"
       y="434.92145"
       x="870.12848">Road</tspan></text>
  <use
     xlink:href="#intersection"
     height="800.00000"
     width="1200.0000"
     y="491.01184"
     x="1022.5280"
     id="King's Cross St. Pancras"
     transform="translate(-154.0000,0.000000)" />
  <text
     id="text307"
     style="font-size:11.000000;font-family:Verdana"
     y="485.01184"
     x="875.52802"><tspan
       id="tspan309"
       y="489.01184"
       x="875.52802">King's Cross</tspan><tspan
       id="tspan311"
       y="501.01184"
       x="875.52802">St. Pancras</tspan></text>
  <use
     xlink:href="#rail"
     height="800.00000"
     width="1200.0000"
     y="499.01184"
     x="1062.5280"
     id="use313"
     transform="translate(-122.0000,-6.000000)" />
  <line
     x1="809.70776"
     y1="50.000000"
     x2="811.43707"
     y2="45.308575"
     style="stroke:#094fa3;stroke-width:4.5000000;stroke-linecap:square"
     id="line315" />
  <line
     x1="809.70776"
     y1="50.000000"
     x2="807.97845"
     y2="54.691425"
     style="stroke:#094fa3;stroke-width:4.5000000;stroke-linecap:square"
     id="line317" />
  <text
     id="text319"
     style="font-size:11.000000;font-family:Verdana"
     y="33.591999"
     x="781.1571"><tspan
       id="tspan321"
       y="37.591999"
       x="781.1571">Cockfosters</tspan></text>
  <line
     x1="850.28912"
     y1="64.958748"
     x2="854.40009"
     y2="62.112774"
     style="stroke:#094fa3;stroke-width:4.5000000;stroke-linecap:square"
     id="line323" />
  <text
     id="text327"
     style="font-size:11.000000;font-family:Verdana"
     y="58.317413"
     x="858.07037"><tspan
       id="tspan329"
       y="62.317413"
       x="858.07037">Oakwood</tspan></text>
  <line
     x1="867.38800"
     y1="556.30157"
     x2="871.23547"
     y2="559.49481"
     style="stroke:#094fa3;stroke-width:4.5000000;stroke-linecap:square"
     id="line333" />
  <text
     id="text335"
     style="font-size:11.000000;font-family:Verdana"
     y="562.16162"
     x="874.38812"><tspan
       id="tspan337"
       y="566.16162"
       x="874.38812">Covent Garden</tspan><tspan
       id="tspan339"
       y="578.16162"
       x="874.38812"></tspan></text>
  <use
     xlink:href="#intersection"
     height="800.00000"
     width="1200.0000"
     y="539.89563"
     x="1031.1914"
     id="Holborn"
     transform="translate(-154.0000,0.000000)" />
  <text
     id="text342"
     style="font-size:11.000000;font-family:Verdana"
     y="539.89563"
     x="884.19141"><tspan
       id="tspan344"
       y="543.89563"
       x="884.19141">Holborn</tspan></text>
  <use
     xlink:href="#intersection"
     height="800.00000"
     width="1200.0000"
     y="562.14594"
     x="1012.7246"
     id="Leicester Square"
     transform="translate(-154.0000,0.000000)" />
  <text
     id="text347"
     style="font-size:11.000000;font-style:normal;font-variant:normal;font-weight:normal;font-stretch:normal;font-family:Verdana;text-anchor:end;writing-mode:lr-tb"
     y="551.20728"
     x="859.86462"><tspan
       id="tspan349"
       style="font-family:Verdana"
       y="555.20728"
       x="859.86462">Leicester Square</tspan><tspan
       id="tspan351"
       style="font-family:Verdana"
       y="567.20728"
       x="859.86462"></tspan></text>
  <line
     x1="492.58020"
     y1="539.51996"
     x2="497.52368"
     y2="540.26953"
     style="stroke:#094fa3;stroke-width:4.5000000;stroke-linecap:square"
     id="line355" />
  <text
     id="text357"
     style="font-size:11.000000;font-family:Verdana"
     y="534.83197"
     x="501.92419"><tspan
       id="tspan359"
       y="538.83197"
       x="501.92419">North</tspan><tspan
       id="tspan361"
       y="550.83197"
       x="501.92419">Ealing</tspan></text>
  <use
     xlink:href="#intersection"
     height="800.00000"
     width="1200.0000"
     y="623.42810"
     x="887.78864"
     id="Gloucester Road"
     transform="translate(-154.0000,0.000000)" />
  <text
     id="text364"
     style="font-size:11.000000;font-style:normal;font-variant:normal;font-weight:normal;font-stretch:normal;font-family:Verdana;text-anchor:middle;writing-mode:lr-tb"
     y="600.76947"
     x="732.19397"><tspan
       id="tspan366"
       style="font-family:Verdana"
       y="604.76947"
       x="732.19397">Gloucester</tspan><tspan
       id="tspan368"
       style="font-family:Verdana"
       y="616.76947"
       x="732.19397">Road</tspan></text>
  <use
     xlink:href="#intersection"
     height="800.00000"
     width="1200.0000"
     y="324.30872"
     x="399.67212"
     id="Eastcote"
     transform="translate(-154.0000,0.000000)" />
  <text
     id="text371"
     style="font-size:11.000000;font-family:Verdana"
     y="312.19806"
     x="222.2001"><tspan
       id="tspan373"
       y="316.19806"
       x="222.2001">Eastcote</tspan></text>
  <use
     xlink:href="#intersection"
     height="800.00000"
     width="1200.0000"
     y="328.69199"
     x="458.03638"
     id="Rayners Lane"
     transform="translate(-154.0000,0.000000)" />
  <text
     id="text376"
     style="font-size:11.000000;font-style:normal;font-variant:normal;font-weight:normal;font-stretch:normal;font-family:Verdana;text-anchor:start;writing-mode:lr-tb"
     y="304.86133"
     x="296.58173"><tspan
       id="tspan378"
       style="font-family:Verdana"
       y="308.86133"
       x="296.58173">Rayners</tspan><tspan
       id="tspan380"
       style="font-family:Verdana"
       y="320.86133"
       x="296.58173">Lane</tspan></text>
  <use
     xlink:href="#intersection"
     height="800.00000"
     width="1200.0000"
     y="336.34531"
     x="364.33444"
     id="Ruislip Manor"
     transform="translate(-154.0000,0.000000)" />
  <text
     id="text383"
     style="font-size:11.000000;font-family:Verdana"
     y="347.28397"
     x="203.27045"><tspan
       id="tspan385"
       y="351.28397"
       x="203.27045">Ruislip</tspan><tspan
       id="tspan387"
       y="363.28397"
       x="203.27045">Manor</tspan></text>
  <use
     xlink:href="#intersection"
     height="800.00000"
     width="1200.0000"
     y="624.88916"
     x="908.53528"
     id="South Kensington"
     transform="translate(-154.0000,0.000000)" />
  <text
     id="text390"
     style="font-size:11.000000;font-family:Verdana"
     y="635.82788"
     x="750.9873"><tspan
       id="tspan392"
       y="639.82788"
       x="750.9873">South</tspan><tspan
       id="tspan394"
       y="651.82788"
       x="750.9873">Kensington</tspan></text>
  <use
     xlink:href="#intersection"
     height="800.00000"
     width="1200.0000"
     y="578.92755"
     x="979.21075"
     id="Green Park"
     transform="translate(-154.0000,0.000000)" />
  <text
     id="text397"
     style="font-size:11.000000;font-family:Verdana"
     y="591.03815"
     x="821.66278"><tspan
       id="tspan399"
       y="595.03815"
       x="821.66278">Green Park</tspan><tspan
       id="tspan401"
       y="607.03815"
       x="821.66278"></tspan></text>
  <line
     x1="802.64020"
     y1="593.51056"
     x2="804.74750"
     y2="598.04480"
     style="stroke:#094fa3;stroke-width:4.5000000;stroke-linecap:square"
     id="line405" />
  <text
     id="text407"
     style="font-size:11.000000;font-family:Verdana"
     y="607.57452"
     x="790.4975"><tspan
       id="tspan409"
       y="611.57452"
       x="790.4975">Hyde Park Corner</tspan><tspan
       id="tspan411"
       y="623.57452"
       x="790.4975"></tspan><tspan
       id="tspan413"
       y="635.57452"
       x="790.4975"></tspan></text>
  <use
     xlink:href="#intersection"
     height="800.00000"
     width="1200.0000"
     y="567.61456"
     x="998.81744"
     id="Picadilly Circus"
     transform="translate(-154.0000,0.000000)" />
  <text
     id="text416"
     style="font-size:11.000000;font-family:Verdana"
     y="578.55322"
     x="841.26935"><tspan
       id="tspan418"
       y="582.55322"
       x="841.26935">Picadilly Circus</tspan><tspan
       id="tspan420"
       y="594.55322"
       x="841.26935"></tspan></text>
  <line
     x1="187.07996"
     y1="724.10394"
     x2="188.73334"
     y2="728.82269"
     style="stroke:#094fa3;stroke-width:4.5000000;stroke-linecap:square"
     id="line424" />
  <text
     id="text426"
     style="font-size:11.000000;font-family:Verdana"
     y="738.60394"
     x="180.57996"><tspan
       id="tspan428"
       y="742.60394"
       x="180.57996">Hatton</tspan><tspan
       id="tspan430"
       y="754.60394"
       x="180.57996">Cross</tspan></text>
  <line
     x1="119.36829"
     y1="708.05981"
     x2="117.29315"
     y2="703.51080"
     style="stroke:#094fa3;stroke-width:4.5000000;stroke-linecap:square"
     id="line432" />
  <text
     id="text436"
     style="font-size:11.000000;font-style:normal;font-variant:normal;font-weight:normal;font-stretch:normal;font-family:Verdana;text-anchor:middle;writing-mode:lr-tb"
     y="668.55981"
     x="112.36829"><tspan
       id="tspan438"
       style="font-family:Verdana"
       y="672.55981"
       x="112.36829">Heathrow</tspan><tspan
       id="tspan440"
       style="font-family:Verdana"
       y="684.55981"
       x="112.36829">Terminals</tspan><tspan
       id="tspan442"
       style="font-family:Verdana"
       y="696.55981"
       x="112.36829">1, 2 &amp; 3</tspan></text>
  <line
     x1="130.31158"
     y1="750.00000"
     x2="129.15875"
     y2="754.86530"
     style="stroke:#094fa3;stroke-width:4.5000000;stroke-linecap:square"
     id="line446" />
  <text
     id="text448"
     style="font-size:11.000000;font-style:normal;font-variant:normal;font-weight:normal;font-stretch:normal;font-family:Verdana;text-anchor:middle;writing-mode:lr-tb"
     y="767"
     x="125.81158"><tspan
       id="tspan450"
       style="font-family:Verdana"
       y="771"
       x="125.81158">Heathrow</tspan><tspan
       id="tspan452"
       style="font-family:Verdana"
       y="783"
       x="125.81158">Terminal 4</tspan></text>
  <line
     x1="271.89041"
     y1="700.39258"
     x2="270.54416"
     y2="695.57727"
     style="stroke:#094fa3;stroke-width:4.5000000;stroke-linecap:square"
     id="line454" />
  <text
     id="text458"
     style="font-size:11.000000;font-style:normal;font-variant:normal;font-weight:normal;font-stretch:normal;font-family:Verdana;text-anchor:middle;writing-mode:lr-tb"
     y="673.89258"
     x="265.89041"><tspan
       id="tspan460"
       style="font-family:Verdana"
       y="677.89258"
       x="265.89041">Hounslow</tspan><tspan
       id="tspan462"
       style="font-family:Verdana"
       y="689.89258"
       x="265.89041">West</tspan></text>
  <use
     xlink:href="#intersection"
     height="800.00000"
     width="1200.0000"
     y="407.11758"
     x="279.06793"
     id="Hillingdon"
     transform="translate(-154.0000,0.000000)" />
  <text
     id="text465"
     style="font-size:11.000000;font-family:Verdana"
     y="414.54025"
     x="131.28659"><tspan
       id="tspan467"
       y="418.54025"
       x="131.28659">Hillingdon</tspan></text>
  <use
     xlink:href="#intersection"
     height="800.00000"
     width="1200.0000"
     y="377.56186"
     x="296.85080"
     id="Ickenham"
     transform="translate(-154.0000,0.000000)" />
  <text
     id="text470"
     style="font-size:11.000000;font-family:Verdana"
     y="368.96719"
     x="84.218803"><tspan
       id="tspan472"
       y="372.96719"
       x="84.218803">Ickenham</tspan></text>
  <use
     xlink:href="#intersection"
     height="800.00000"
     width="1200.0000"
     y="434.47470"
     x="213.63615"
     id="Uxbridge"
     transform="translate(-154.0000,0.000000)" />
  <text
     id="text475"
     style="font-size:11.000000;font-family:Verdana"
     y="446.1947"
     x="33.820137"><tspan
       id="tspan477"
       y="450.1947"
       x="33.820137">Uxbridge</tspan></text>
  <line
     x1="867.15997"
     y1="519.46826"
     x2="862.23682"
     y2="520.34076"
     style="stroke:#094fa3;stroke-width:4.5000000;stroke-linecap:square"
     id="line481" />
  <text
     id="text483"
     style="font-size:11.000000;font-family:Verdana"
     y="519.8736"
     x="776.1134"><tspan
       id="tspan485"
       y="523.8736"
       x="776.1134">Russell Square</tspan><tspan
       id="tspan487"
       y="535.8736"
       x="776.1134"></tspan></text>
  <line
     x1="315.20767"
     y1="708.05981"
     x2="315.18042"
     y2="713.05975"
     style="stroke:#094fa3;stroke-width:4.5000000;stroke-linecap:square"
     id="line491" />
  <text
     id="text493"
     style="font-size:11.000000;font-style:normal;font-variant:normal;font-weight:normal;font-stretch:normal;font-family:Verdana;text-anchor:middle;writing-mode:lr-tb"
     y="722.05981"
     x="312.20767"><tspan
       id="tspan495"
       style="font-family:Verdana"
       y="726.05981"
       x="312.20767">Hounslow</tspan><tspan
       id="tspan497"
       style="font-family:Verdana"
       y="738.05981"
       x="312.20767">Central</tspan></text>
  <line
     x1="338.23413"
     y1="700.75439"
     x2="341.96252"
     y2="704.08594"
     style="stroke:#094fa3;stroke-width:4.5000000;stroke-linecap:square"
     id="line501" />
  <text
     id="text503"
     style="font-size:11.000000;font-family:Verdana"
     y="701.75439"
     x="346.23413"><tspan
       id="tspan505"
       y="705.75439"
       x="346.23413">Hounslow</tspan><tspan
       id="tspan507"
       y="717.75439"
       x="346.23413">East</tspan></text>
  <line
     x1="784.40143"
     y1="597.89386"
     x2="781.66968"
     y2="593.70605"
     style="stroke:#094fa3;stroke-width:4.5000000;stroke-linecap:square"
     id="line509" />
  <text
     id="text513"
     style="font-size:11.000000;font-family:Verdana"
     y="582.26715"
     x="721.47211"><tspan
       id="tspan515"
       y="586.26715"
       x="721.47211">Knightsbridge</tspan></text>
  <use
     xlink:href="#intersection"
     height="800.00000"
     width="1200.0000"
     y="342.55142"
     x="344.27173"
     id="Ruislip"
     transform="translate(-154.0000,0.000000)" />
  <text
     id="text518"
     style="font-size:11.000000;font-family:Verdana"
     y="329.26877"
     x="160.54907"><tspan
       id="tspan520"
       y="333.26877"
       x="160.54907">Ruislip</tspan></text>
  <text
     id="text526"
     style="font-size:11.000000;font-style:normal;font-variant:normal;font-weight:normal;font-stretch:normal;font-family:Verdana;text-anchor:end;writing-mode:lr-tb"
     y="270.47668"
     x="905.04358"><tspan
       id="tspan528"
       style="font-family:Verdana"
       y="274.47668"
       x="905.04358">Turnpike</tspan><tspan
       id="tspan530"
       style="font-family:Verdana"
       y="286.47668"
       x="905.04358">Lane</tspan></text>
  <line
     x1="348.03751"
     y1="367.70996"
     x2="344.80835"
     y2="371.52737"
     style="stroke:#094fa3;stroke-width:4.5000000;stroke-linecap:square"
     id="line534" />
  <text
     id="text536"
     style="font-size:11.000000;font-style:normal;font-variant:normal;font-weight:normal;font-stretch:normal;font-family:Verdana;text-anchor:end;writing-mode:lr-tb"
     y="380.60196"
     x="348.39618"><tspan
       id="tspan538"
       style="font-family:Verdana"
       y="384.60196"
       x="348.39618">South</tspan><tspan
       id="tspan540"
       style="font-family:Verdana"
       y="396.60196"
       x="348.39618">Harrow</tspan></text>
  <line
     x1="383.37524"
     y1="395.80460"
     x2="385.97699"
     y2="391.53485"
     style="stroke:#094fa3;stroke-width:4.5000000;stroke-linecap:square"
     id="line542" />
  <text
     id="text546"
     style="font-size:11.000000;font-style:normal;font-variant:normal;font-weight:normal;font-stretch:normal;font-family:Verdana;text-anchor:middle;writing-mode:lr-tb"
     y="370.41125"
     x="390.37518"><tspan
       id="tspan548"
       style="font-family:Verdana"
       y="374.41125"
       x="390.37518">Sudbury</tspan><tspan
       id="tspan550"
       style="font-family:Verdana"
       y="386.41125"
       x="390.37518">Hill</tspan></text>
  <path
     id="path2187"
     style="fill:none;stroke:#094fa3;stroke-width:4.5000000;stroke-linecap:round"
     d="M 880.06510,428.12070 C 884.09290,414.86655 887.93060,418.08558 892.83230,411.70086" />
  <path
     id="path2189"
     style="fill:none;stroke:#094fa3;stroke-width:4.5000000;stroke-linecap:round"
     d="M 892.83230,411.70086 C 897.73400,405.31614 906.92940,396.86502 909.47520,389.81238" />
  <path
     id="path2191"
     style="fill:none;stroke:#094fa3;stroke-width:4.5000000;stroke-linecap:round"
     d="M 909.47520,389.81238 C 912.02110,382.75973 904.26960,377.04526 908.10730,369.38499" />
  <path
     id="path2193"
     style="fill:none;stroke:#094fa3;stroke-width:4.5000000;stroke-linecap:round"
     d="M 908.10730,369.38499 C 911.94510,361.72471 931.09580,359.77892 932.50170,343.85075" />
  <path
     id="path2195"
     style="fill:none;stroke:#094fa3;stroke-width:4.5000000;stroke-linecap:round"
     d="M 932.50170,343.85075 C 933.90770,327.92257 921.82440,289.80443 916.54280,273.81596" />
  <path
     id="path2197"
     style="fill:none;stroke:#094fa3;stroke-width:4.5000000;stroke-linecap:round"
     d="M 916.54280,273.81596 C 911.26110,257.82749 908.98130,258.07332 900.81180,247.91992" />
  <line
     x1="909.47516"
     y1="389.81238"
     x2="914.17816"
     y2="391.51004"
     style="stroke:#094fa3;stroke-width:4.5000000;stroke-linecap:square"
     id="line217" />
  <use
     xlink:href="#intersection"
     height="800.00000"
     width="1200.0000"
     y="369.17105"
     x="1061.9694"
     id="Finsbury Park"
     transform="translate(-153.8621,0.213930)" />
  <text
     id="text224"
     style="font-size:11.000000;font-family:Verdana"
     y="356.3035"
     x="852.72943"><tspan
       id="tspan226"
       y="360.3035"
       x="852.72943">Finsbury</tspan><tspan
       id="tspan228"
       y="372.3035"
       x="852.72943">Park</tspan></text>
  <use
     xlink:href="#rail"
     height="800.00000"
     width="1200.0000"
     y="377.17105"
     x="1101.9694"
     id="use230"
     transform="translate(-220.2399,-12.86755)" />
  <line
     x1="892.83221"
     y1="411.70087"
     x2="896.79828"
     y2="414.74564"
     style="stroke:#094fa3;stroke-width:4.5000000;stroke-linecap:square"
     id="line234" />
  <line
     x1="900.81171"
     y1="247.91992"
     x2="904.70734"
     y2="244.78552"
     style="stroke:#094fa3;stroke-width:4.5000000;stroke-linecap:square"
     id="line287" />
  <line
     x1="880.06512"
     y1="428.12070"
     x2="875.28107"
     y2="426.66690"
     style="stroke:#094fa3;stroke-width:4.5000000;stroke-linecap:square"
     id="line297" />
  <line
     x1="932.50177"
     y1="343.85074"
     x2="937.48236"
     y2="344.29037"
     style="stroke:#094fa3;stroke-width:4.5000000;stroke-linecap:square"
     id="line392" />
  <line
     x1="916.54279"
     y1="273.81595"
     x2="911.79510"
     y2="275.38431"
     style="stroke:#094fa3;stroke-width:4.5000000;stroke-linecap:square"
     id="line535" />
</svg>
