<?xml version="1.0" encoding="utf-8"?>
<!-- Generator: Adobe Illustrator 13.0.0, SVG Export Plug-In . SVG Version: 6.00 Build 14948)  -->
<!DOCTYPE svg PUBLIC "-//W3C//DTD SVG 1.1//EN" "http://www.w3.org/Graphics/SVG/1.1/DTD/svg11.dtd">
<svg version="1.1" id="Layer_1" xmlns="http://www.w3.org/2000/svg" xmlns:xlink="http://www.w3.org/1999/xlink" x="0px" y="0px"
	 width="2988.895px" height="1885.335px" viewBox="0 0 2988.895 1885.335" enable-background="new 0 0 2988.895 1885.335"
	 xml:space="preserve">
<text transform="matrix(1 0 0 1 117.5674 193.3823)" fill="#1C3F94" font-family="'ArialMT'" font-size="13.7317">Amersham</text>
<text transform="matrix(1 0 0 1 285.0654 207.4351)" fill="#1C3F94" font-family="'ArialMT'" font-size="13.7317">Chorleywood</text>
<text transform="matrix(1 0 0 1 1316.9741 261.0347)" fill="#1C3F94" font-family="'ArialMT'" font-size="13.7317">Mill Hill East</text>
<text transform="matrix(1 0 0 1 306.2056 236.7271)" fill="#1C3F94" font-family="'ArialMT'" font-size="13.7317">Rickmansworth</text>
<text transform="matrix(1 0 0 1 340.7793 712.6431)" fill="#1C3F94" font-family="'ArialMT'" font-size="13.7317">Perivale</text>
<text transform="matrix(1 0 0 1 1342.5054 526.9585)" fill="#1C3F94" font-family="'ArialMT'" font-size="13.7317">Kentish%%Town West</text>
<text transform="matrix(1 0 0 1 1415.4062 604.6323)" fill="#1C3F94" font-family="'ArialMT'" font-size="13.7205">Camden%%Road</text>
<text transform="matrix(1 0 0 1 1861.8066 628.8521)" fill="#1C3F94" font-family="'ArialMT'" font-size="13.7317">Dalston Kingsland</text>
<text transform="matrix(1 0 0 1 1892.168 661.3706)" fill="#1C3F94" font-family="'ArialMT'" font-size="13.7317">Hackney Central</text>
<text transform="matrix(1 0 0 1 2157.4961 640.8804)" fill="#1C3F94" font-family="'ArialMT'" font-size="13.7317">Wanstead Park</text>
<text transform="matrix(1 0 0 1 1111.8071 1357.4546)" fill="#1C3F94" font-family="'ArialMT'" font-size="13.7317">Vauxhall</text>
<text transform="matrix(1 0 0 1 368.2026 767.9116)" fill="#1C3F94" font-family="'ArialMT'" font-size="13.7317">Hanger Lane</text>
<text transform="matrix(1 0 0 1 991.7798 284.6177)" fill="#1C3F94" font-family="'ArialMT'" font-size="13.7317">Edgware</text>
<text transform="matrix(1 0 0 1 1021.0874 324.522)" fill="#1C3F94" font-family="'ArialMT'" font-size="13.7317">Burnt Oak</text>
<text transform="matrix(1 0 0 1 1055.2778 355.0181)" fill="#1C3F94" font-family="'ArialMT'" font-size="13.7317">Colindale</text>
<text transform="matrix(1 0 0 1 1063.6187 385.522)" fill="#1C3F94" font-family="'ArialMT'" font-size="13.7317">Hendon Central</text>
<text transform="matrix(1 0 0 1 1103.6987 416.0181)" fill="#1C3F94" font-family="'ArialMT'" font-size="13.7317">Brent Cross</text>
<text transform="matrix(1 0 0 1 1115.1084 446.522)" fill="#1C3F94" font-family="'ArialMT'" font-size="13.7317">Golders Green</text>
<text transform="matrix(1 0 0 1 2141.3574 1055.1245)" fill="#1C3F94" font-family="'ArialMT'" font-size="13.7317">West Silvertown</text>
<text transform="matrix(1 0 0 1 2206.127 1108.2144)" fill="#1C3F94" font-family="'ArialMT'" font-size="13.7317">Pontoon Dock</text>
<text transform="matrix(1 0 0 1 2224.0293 1161.3159)" fill="#1C3F94" font-family="'ArialMT'" font-size="13.7317">London City Airport</text>
<text transform="matrix(1 0 0 1 2417.8086 1325.146)" fill="#1C3F94" font-family="'ArialMT'" font-size="13.7317">Woolwich Arsenal</text>
<text transform="matrix(1 0 0 1 2310.2383 1214.4058)" fill="#1C3F94" font-family="'ArialMT'" font-size="13.7317">King George V</text>
<text transform="matrix(1 0 0 1 1165.8394 477.019)" fill="#1C3F94" font-family="'ArialMT'" font-size="13.7317">Hampstead</text>
<text transform="matrix(1 0 0 1 1229.2896 542.9644)" fill="#1C3F94" font-family="'ArialMT'" font-size="13.7317">Belsize Park</text>
<text transform="matrix(1 0 0 1 1264.0894 573.4683)" fill="#1C3F94" font-family="'ArialMT'" font-size="13.7317">Chalk Farm </text>
<text transform="matrix(1 0 0 1 247.9302 152.8804)" fill="#1C3F94" font-family="'ArialMT'" font-size="13.7205"> Chalfont &amp;%%Latimer</text>
<text transform="matrix(1 0 0 1 116.1196 127.7349)" fill="#1C3F94" font-family="'ArialMT'" font-size="13.7317">Chesham</text>
<text transform="matrix(1 0 0 1 1636.1035 1362.4956)" fill="#1C3F94" font-family="'ArialMT'" font-size="13.7243">New Cross Gate</text>
<text transform="matrix(1 0 0 1 438.9243 238.3599)" fill="#1C3F94" font-family="'ArialMT'" font-size="13.7211">Moor Park</text>
<text transform="matrix(1 0 0 1 468.7925 268.2222)" fill="#1C3F94" font-family="'ArialMT'" font-size="13.7211">Northwood</text>
<text transform="matrix(1 0 0 1 488.6553 294.7935)" fill="#1C3F94" font-family="'ArialMT'" font-size="13.7205"> Northwood%%Hills</text>
<text transform="matrix(1 0 0 1 538.1606 333.7427)" fill="#1C3F94" font-family="'ArialMT'" font-size="13.7211">Pinner</text>
<text transform="matrix(1 0 0 1 564.1733 363.606)" fill="#1C3F94" font-family="'ArialMT'" font-size="13.7211">North Harrow</text>
<text transform="matrix(1 0 0 1 2363.0723 994.1479)" fill="#1C3F94" font-family="'ArialMT'" font-size="13.7211">Custom House for ExCeL</text>
<text transform="matrix(1 0 0 1 2312.9336 1024.0054)" fill="#1C3F94" font-family="'ArialMT'" font-size="13.7211">Prince Regent</text>
<text transform="matrix(1 0 0 1 2342.8027 1053.8745)" fill="#1C3F94" font-family="'ArialMT'" font-size="13.7211">Royal Albert</text>
<text transform="matrix(1 0 0 1 2372.6621 1083.7437)" fill="#1C3F94" font-family="'ArialMT'" font-size="13.7211">Beckton Park</text>
<text transform="matrix(1 0 0 1 2401.0918 1112.8745)" fill="#1C3F94" font-family="'ArialMT'" font-size="13.7211">Cyprus</text>
<text transform="matrix(1 0 0 1 2432.4023 1143.4741)" fill="#1C3F94" font-family="'ArialMT'" font-size="13.7211">Gallions Reach </text>
<text transform="matrix(1 0 0 1 2462.2617 1173.3335)" fill="#1C3F94" font-family="'ArialMT'" font-size="13.7211">Beckton</text>
<text transform="matrix(1 0 0 1 431.3545 173.4819)" fill="#1C3F94" font-family="'ArialMT'" font-size="13.7211">Watford</text>
<text transform="matrix(1 0 0 1 431.3545 205.9526)" fill="#1C3F94" font-family="'ArialMT'" font-size="13.7211">Croxley</text>
<text transform="matrix(1 0 0 1 761.2056 1240.4937)" fill="#1C3F94" font-family="'ArialMT'" font-size="13.7211">Fulham Broadway</text>
<text transform="matrix(1 0 0 1 1345.2729 1287.644)" fill="#1C3F94" font-family="'ArialMT'" font-size="13.7205"> Lambeth%%North</text>
<text transform="matrix(1 0 0 1 242.9331 1360.6343)" fill="#1C3F94" font-family="'ArialMT'" font-size="13.7205"> Heathrow%%Terminal 4</text>
<text transform="matrix(1 0 0 1 606.5137 390.772)" fill="#1C3F94" font-family="'ArialMT'" font-size="13.7205"> Harrow-%%on-the-Hill</text>
<text transform="matrix(1 0 0 1 802.646 573.103)" fill="#1C3F94" font-family="'ArialMT'" font-size="13.7205"> Kensal%%Rise</text>
<text transform="matrix(1 0 0 1 1771.9922 594.4956)" fill="#1C3F94" font-family="'ArialMT'" font-size="13.7211">Canonbury</text>
<text transform="matrix(1 0 0 1 1862.1719 776.5474)" fill="#1C3F94" font-family="'ArialMT'" font-size="13.7205"> Bethnal Green</text>
<text transform="matrix(1 0 0 1 1922.2227 974.7241)" fill="#1C3F94" font-family="'ArialMT'" font-size="13.7211">Westferry</text>
<text transform="matrix(1 0 0 1 1803.2344 417.7808)" fill="#1C3F94" font-family="'ArialMT'" font-size="13.7205"> Seven Sisters</text>
<text transform="matrix(1 0 0 1 2027.9238 974.7241)" fill="#1C3F94" font-family="'ArialMT'" font-size="13.7211">Blackwall</text>
<text transform="matrix(1 0 0 1 866.6123 573.105)" fill="#1C3F94" font-family="'ArialMT'" font-size="13.7205"> Brondesbury%%Park</text>
<text transform="matrix(1 0 0 1 1275.1948 477.0347)" fill="#1C3F94" font-family="'ArialMT'" font-size="13.7205"> Hampstead%%Heath</text>
<text transform="matrix(1 0 0 1 1777.125 362.2554)" fill="#1C3F94" font-family="'ArialMT'" font-size="13.7205"> Harringay%%Green Lanes</text>
<text transform="matrix(1 0 0 1 2149.6152 584.3921)" fill="#1C3F94" font-family="'ArialMT'" font-size="13.7205"> Leytonstone High Road</text>
<text transform="matrix(1 0 0 1 2036.1348 584.3921)" fill="#1C3F94" font-family="'ArialMT'" font-size="13.7205"> Leyton Midland Road</text>
<text transform="matrix(1 0 0 1 691.3706 392.7593)" fill="#1C3F94" font-family="'ArialMT'" font-size="13.7205"> Northwick%%Park</text>
<text transform="matrix(1 0 0 1 772.5488 402.7593)" fill="#1C3F94" font-family="'ArialMT'" font-size="13.7205"> Preston%%Road</text>
<text transform="matrix(1 0 0 1 2212.375 971.2974)" fill="#1C3F94" font-family="'ArialMT'" font-size="13.7205"> Royal%%Victoria</text>
<text transform="matrix(1 0 0 1 796.0166 492.3188)" fill="#1C3F94" font-family="'ArialMT'" font-size="13.7205"> Wembley%%Park</text>
<text transform="matrix(1 0 0 1 371.3237 414.7515)" fill="#1C3F94" font-family="'ArialMT'" font-size="13.7211">Rayners Lane</text>
<text transform="matrix(1 0 0 1 656.0542 160.4019)" fill="#1C3F94" font-family="'ArialMT'" font-size="13.7211">Watford High Street</text>
<text transform="matrix(1 0 0 1 266.1401 419.728)" fill="#1C3F94" font-family="'ArialMT'" font-size="13.7205"> Ruislip%%Gardens</text>
<text transform="matrix(1 0 0 1 235.0088 482.0806)" fill="#1C3F94" font-family="'ArialMT'" font-size="13.7211">South Ruislip</text>
<text transform="matrix(1 0 0 1 274.6743 663.9878)" fill="#1C3F94" font-family="'ArialMT'" font-size="13.7211">Greenford</text>
<text transform="matrix(1 0 0 1 263.0361 552.1714)" fill="#1C3F94" font-family="'ArialMT'" font-size="13.7211">Northolt</text>
<text transform="matrix(1 0 0 1 376.6934 466.6831)" fill="#1C3F94" font-family="'ArialMT'" font-size="13.7211">South Harrow</text>
<text transform="matrix(1 0 0 1 385.4927 521.2056)" fill="#1C3F94" font-family="'ArialMT'" font-size="13.7211">Sudbury Hill</text>
<text transform="matrix(1 0 0 1 371.2832 575.7378)" fill="#1C3F94" font-family="'ArialMT'" font-size="13.7211">Sudbury Town</text>
<text transform="matrix(1 0 0 1 406.4478 630.2632)" fill="#1C3F94" font-family="'ArialMT'" font-size="13.7211">Alperton</text>
<text transform="matrix(1 0 0 1 1093.0737 1225.6343)" fill="#1C3F94" font-family="'ArialMT'" font-size="13.7211">Pimlico</text>
<text transform="matrix(1 0 0 1 398.0054 814.3159)" fill="#1C3F94" font-family="'ArialMT'" font-size="13.7211">Park Royal</text>
<text transform="matrix(1 0 0 1 384.5913 859.5952)" fill="#1C3F94" font-family="'ArialMT'" font-size="13.7211">North Ealing</text>
<text transform="matrix(1 0 0 1 515.064 975.5601)" fill="#1C3F94" font-family="'ArialMT'" font-size="13.7211">Acton Central</text>
<text transform="matrix(1 0 0 1 524.4834 1020.7847)" fill="#1C3F94" font-family="'ArialMT'" font-size="13.7211">South Acton </text>
<text transform="matrix(1 0 0 1 313.6519 904.103)" fill="#1C3F94" font-family="'ArialMT'" font-size="13.7211">Ealing Broadway</text>
<text transform="matrix(1 0 0 1 648.8213 127.4448)" fill="#1C3F94" font-family="'ArialMT'" font-size="13.7211">Watford Junction</text>
<text transform="matrix(1 0 0 1 239.1929 283.9585)" fill="#1C3F94" font-family="'ArialMT'" font-size="13.7211">West Ruislip</text>
<text transform="matrix(1 0 0 1 712.4722 193.3589)" fill="#1C3F94" font-family="'ArialMT'" font-size="13.7211">Bushey</text>
<text transform="matrix(1 0 0 1 656.2129 226.3228)" fill="#1C3F94" font-family="'ArialMT'" font-size="13.7211">Carpenders Park</text>
<text transform="matrix(1 0 0 1 695.4165 259.2788)" fill="#1C3F94" font-family="'ArialMT'" font-size="13.7211">Hatch End</text>
<text transform="matrix(1 0 0 1 653.6592 470.312)" fill="#1C3F94" font-family="'ArialMT'" font-size="13.7211">North Wembley </text>
<text transform="matrix(1 0 0 1 753.1689 1173.8452)" fill="#1C3F94" font-family="'ArialMT'" font-size="13.7211">West Brompton</text>
<text transform="matrix(1 0 0 1 360.0073 995.7065)" fill="#1C3F94" font-family="'ArialMT'" font-size="13.7211">Ealing Common</text>
<text transform="matrix(1 0 0 1 667.2158 442.5347)" fill="#1C3F94" font-family="'ArialMT'" font-size="13.7211">South Kenton </text>
<text transform="matrix(1 0 0 1 780.0566 366.1753)" fill="#1C3F94" font-family="'ArialMT'" font-size="13.7211">Kenton</text>
<text transform="matrix(1 0 0 1 645.8408 498.0952)" fill="#1C3F94" font-family="'ArialMT'" font-size="13.7211">Wembley Central</text>
<text transform="matrix(1 0 0 1 790.0239 618.4448)" fill="#1C3F94" font-family="'ArialMT'" font-size="13.7211">Kensal Green</text>
<text transform="matrix(1 0 0 1 788.7378 646.231)" fill="#1C3F94" font-family="'ArialMT'" font-size="13.7211">Queen’s Park</text>
<text transform="matrix(1 0 0 1 564.814 1200.5776)" fill="#1C3F94" font-family="'ArialMT'" font-size="13.7211">Gunnersbury</text>
<text transform="matrix(1 0 0 1 564.8823 1247.1675)" fill="#1C3F94" font-family="'ArialMT'" font-size="13.7211">Kew Gardens</text>
<text transform="matrix(1 0 0 1 565.0415 1287.2769)" fill="#1C3F94" font-family="'ArialMT'" font-size="13.7211">Richmond</text>
<text transform="matrix(1 0 0 1 1287.519 1444.0483)" fill="#1C3F94" font-family="'ArialMT'" font-size="13.7211">Stockwell</text>
<text transform="matrix(1 0 0 1 1906.4785 857.5288)" fill="#1C3F94" font-family="'ArialMT'" font-size="13.7211">Bow Church</text>
<text transform="matrix(1 0 0 1 647.9375 525.8804)" fill="#1C3F94" font-family="'ArialMT'" font-size="13.7211">Stonebridge Park</text>
<text transform="matrix(1 0 0 1 689.2012 553.6646)" fill="#1C3F94" font-family="'ArialMT'" font-size="13.7211">Harlesden</text>
<text transform="matrix(1 0 0 1 1272.0806 611.1694)" fill="#1C3F94" font-family="'ArialMT'" font-size="13.7211">Camden Town</text>
<text transform="matrix(1 0 0 1 656.5298 581.4468)" fill="#1C3F94" font-family="'ArialMT'" font-size="13.7211">Willesden Junction</text>
<text transform="matrix(1 0 0 1 659.5938 292.2456)" fill="#1C3F94" font-family="'ArialMT'" font-size="13.7211">Headstone Lane</text>
<text transform="matrix(1 0 0 1 782.8408 1273.5679)" fill="#1C3F94" font-family="'ArialMT'" font-size="13.7211">Parsons Green</text>
<text transform="matrix(1 0 0 1 785.9897 1306.5288)" fill="#1C3F94" font-family="'ArialMT'" font-size="13.7211">Putney Bridge</text>
<text transform="matrix(1 0 0 1 798.1631 1352.6069)" fill="#1C3F94" font-family="'ArialMT'" font-size="13.7211">East Putney</text>
<text transform="matrix(1 0 0 1 800.6025 1385.5679)" fill="#1C3F94" font-family="'ArialMT'" font-size="13.7211">Southfields</text>
<text transform="matrix(1 0 0 1 769.9717 1418.5269)" fill="#1C3F94" font-family="'ArialMT'" font-size="13.7211">Wimbledon Park </text>
<text transform="matrix(1 0 0 1 797.3892 1451.4976)" fill="#1C3F94" font-family="'ArialMT'" font-size="13.7211">Wimbledon</text>
<text transform="matrix(1 0 0 1 1888.0508 1274.3979)" fill="#1C3F94" font-family="'ArialMT'" font-size="13.7211">Island Gardens</text>
<text transform="matrix(1 0 0 1 2006.3203 1366.5874)" fill="#1C3F94" font-family="'ArialMT'" font-size="13.7211">Greenwich</text>
<text transform="matrix(1 0 0 1 2006.3203 1398.5269)" fill="#1C3F94" font-family="'ArialMT'" font-size="13.7211">Deptford Bridge</text>
<text transform="matrix(1 0 0 1 1906.4199 1175.5269)" fill="#1C3F94" font-family="'ArialMT'" font-size="13.7211">South Quay</text>
<text transform="matrix(1 0 0 1 1896.1191 1208.4761)" fill="#1C3F94" font-family="'ArialMT'" font-size="13.7211">Crossharbour</text>
<text transform="matrix(1 0 0 1 1916.3203 1241.437)" fill="#1C3F94" font-family="'ArialMT'" font-size="13.7211">Mudchute</text>
<text transform="matrix(1 0 0 1 1898.9102 1142.5659)" fill="#1C3F94" font-family="'ArialMT'" font-size="13.7211">Heron Quays</text>
<text transform="matrix(1 0 0 1 2006.4805 1051.1265)" fill="#1C3F94" font-family="'ArialMT'" font-size="13.7205"> West%%India Quay</text>
<text transform="matrix(1 0 0 1 2006.3203 1430.4565)" fill="#1C3F94" font-family="'ArialMT'" font-size="13.7211">Elverson Road</text>
<text transform="matrix(1 0 0 1 1751.2188 205.2515)" fill="#1C3F94" font-family="'ArialMT'" font-size="13.7211">Oakwood</text>
<text transform="matrix(1 0 0 1 1749.9004 172.2935)" fill="#1C3F94" font-family="'ArialMT'" font-size="13.7211">Cockfosters</text>
<text transform="matrix(1 0 0 1 1665.5898 238.2144)" fill="#1C3F94" font-family="'ArialMT'" font-size="13.7211">Southgate</text>
<text transform="matrix(1 0 0 1 1652.4785 271.1714)" fill="#1C3F94" font-family="'ArialMT'" font-size="13.7211">Arnos Grove</text>
<text transform="matrix(1 0 0 1 1652.5586 304.1265)" fill="#1C3F94" font-family="'ArialMT'" font-size="13.7211">Bounds Green</text>
<text transform="matrix(1 0 0 1 2046.0586 146.9888)" fill="#1C3F94" font-family="'ArialMT'" font-size="13.7211">Theydon Bois</text>
<text transform="matrix(1 0 0 1 2084.668 119.1733)" fill="#1C3F94" font-family="'ArialMT'" font-size="13.7211">Epping</text>
<text transform="matrix(1 0 0 1 2080.3086 174.8042)" fill="#1C3F94" font-family="'ArialMT'" font-size="13.7211">Debden</text>
<text transform="matrix(1 0 0 1 2069.5195 202.6138)" fill="#1C3F94" font-family="'ArialMT'" font-size="13.7211">Loughton</text>
<text transform="matrix(1 0 0 1 2042.4395 240.7241)" fill="#1C3F94" font-family="'ArialMT'" font-size="13.7211">Buckhurst Hill</text>
<text transform="matrix(1 0 0 1 1965.6602 509.5054)" fill="#1C3F94" font-family="'ArialMT'" font-size="13.7205"> Walthamstow%%Queen’s Road</text>
<text transform="matrix(1 0 0 1 2153.1504 675.1167)" fill="#1C3F94" font-family="'ArialMT'" font-size="13.7211">Woodgrange Park</text>
<text transform="matrix(1 0 0 1 2050.9316 548.8267)" fill="#1C3F94" font-family="'ArialMT'" font-size="13.7211">Leytonstone</text>
<text transform="matrix(1 0 0 1 2085.6211 630.5366)" fill="#1C3F94" font-family="'ArialMT'" font-size="13.7211">Leyton</text>
<text transform="matrix(1 0 0 1 1651.4512 337.0913)" fill="#1C3F94" font-family="'ArialMT'" font-size="13.7211">Wood Green</text>
<text transform="matrix(1 0 0 1 1642.6699 370.0483)" fill="#1C3F94" font-family="'ArialMT'" font-size="13.7211">Turnpike Lane</text>
<text transform="matrix(1 0 0 1 1647.3594 418.6685)" fill="#1C3F94" font-family="'ArialMT'" font-size="13.7211">Manor House</text>
<text transform="matrix(1 0 0 1 876.4678 305.6138)" fill="#1C3F94" font-family="'ArialMT'" font-size="13.7211">Stanmore</text>
<text transform="matrix(1 0 0 1 873.9639 338.5728)" fill="#1C3F94" font-family="'ArialMT'" font-size="13.7211">Canons Park</text>
<text transform="matrix(1 0 0 1 873.9639 371.5327)" fill="#1C3F94" font-family="'ArialMT'" font-size="13.7211">Queensbury</text>
<text transform="matrix(1 0 0 1 873.9639 404.4878)" fill="#1C3F94" font-family="'ArialMT'" font-size="13.7211">Kingsbury</text>
<text transform="matrix(1 0 0 1 1459.811 165.3237)" fill="#1C3F94" font-family="'ArialMT'" font-size="13.7211">High Barnet</text>
<text transform="matrix(1 0 0 1 1487.6206 198.2866)" fill="#1C3F94" font-family="'ArialMT'" font-size="13.7211">Totteridge &amp; Whetstone</text>
<text transform="matrix(1 0 0 1 1459.3911 231.2437)" fill="#1C3F94" font-family="'ArialMT'" font-size="13.7211">Woodside Park</text>
<text transform="matrix(1 0 0 1 1459.3701 264.2007)" fill="#1C3F94" font-family="'ArialMT'" font-size="13.7211">West Finchley</text>
<text transform="matrix(1 0 0 1 1459.3701 314.1177)" fill="#1C3F94" font-family="'ArialMT'" font-size="13.7211">Finchley Central</text>
<text transform="matrix(1 0 0 1 2062.7715 360.4351)" fill="#1C3F94" font-family="'ArialMT'" font-size="13.7211">Woodford</text>
<text transform="matrix(1 0 0 1 2026.8594 392.519)" fill="#1C3F94" font-family="'ArialMT'" font-size="13.7211">South Woodford</text>
<text transform="matrix(1 0 0 1 2052.9102 425.48)" fill="#1C3F94" font-family="'ArialMT'" font-size="13.7211">Snaresbrook</text>
<text transform="matrix(1 0 0 1 2227.3398 346.2017)" fill="#1C3F94" font-family="'ArialMT'" font-size="13.7211">Hainault</text>
<text transform="matrix(1 0 0 1 2240.4609 379.1646)" fill="#1C3F94" font-family="'ArialMT'" font-size="13.7211">Fairlop</text>
<text transform="matrix(1 0 0 1 2212.1992 412.1226)" fill="#1C3F94" font-family="'ArialMT'" font-size="13.7211">Barkingside</text>
<text transform="matrix(1 0 0 1 2196.6895 445.0835)" fill="#1C3F94" font-family="'ArialMT'" font-size="13.7211">Newbury Park </text>
<text transform="matrix(1 0 0 1 1457.6196 347.0806)" fill="#1C3F94" font-family="'ArialMT'" font-size="13.7211">East Finchley </text>
<text transform="matrix(1 0 0 1 1457.6196 380.0386)" fill="#1C3F94" font-family="'ArialMT'" font-size="13.7211">Highgate</text>
<text transform="matrix(1 0 0 1 1447.6196 419.5015)" fill="#1C3F94" font-family="'ArialMT'" font-size="13.7211">Archway</text>
<text transform="matrix(1 0 0 1 2006.3691 885.9429)" fill="#1C3F94" font-family="'ArialMT'" font-size="13.7211">Devons Road</text>
<text transform="matrix(1 0 0 1 2006.3691 918.9019)" fill="#1C3F94" font-family="'ArialMT'" font-size="13.7211">Langdon Park </text>
<text transform="matrix(1 0 0 1 2006.3691 951.8628)" fill="#1C3F94" font-family="'ArialMT'" font-size="13.7211">All Saints</text>
<text transform="matrix(1 0 0 1 1457.6196 458.9702)" fill="#1C3F94" font-family="'ArialMT'" font-size="13.7211">Tufnell Park</text>
<text transform="matrix(1 0 0 1 1459.5898 497.1685)" fill="#1C3F94" font-family="'ArialMT'" font-size="13.7211">Kentish Town</text>
<text transform="matrix(1 0 0 1 906.0229 465.0327)" fill="#1C3F94" font-family="'ArialMT'" font-size="13.7211">Neasden</text>
<text transform="matrix(1 0 0 1 934.6426 493.644)" fill="#1C3F94" font-family="'ArialMT'" font-size="13.7211">Dollis Hill</text>
<text transform="matrix(1 0 0 1 983.2671 522.2642)" fill="#1C3F94" font-family="'ArialMT'" font-size="13.7211">Willesden Green</text>
<text transform="matrix(1 0 0 1 1894.8691 395.1685)" fill="#1C3F94" font-family="'ArialMT'" font-size="13.7211">South Tottenham</text>
<text transform="matrix(1 0 0 1 884.8198 436.8257)" fill="#1C3F94" font-family="'ArialMT'" font-size="13.7211">Swiss Cottage</text>
<text transform="matrix(1 0 0 1 946.6265 1246.5972)" fill="#1C3F94" font-family="'ArialMT'" font-size="13.7205"> Imperial Wharf</text>
<text transform="matrix(1 0 0 1 1334.1997 1507.0483)" fill="#1C3F94" font-family="'ArialMT'" font-size="13.7211">Brixton</text>
<text transform="matrix(1 0 0 1 995.8633 550.8853)" fill="#1C3F94" font-family="'ArialMT'" font-size="13.7211">Kilburn</text>
<text transform="matrix(1 0 0 1 1023.9546 579.4995)" fill="#1C3F94" font-family="'ArialMT'" font-size="13.7211">West Hampstead</text>
<text transform="matrix(1 0 0 1 1939.2441 421.8726)" fill="#1C3F94" font-family="'ArialMT'" font-size="13.7205"> Blackhorse%%Road </text>
<text transform="matrix(1 0 0 1 489.7124 1069.9565)" fill="#1C3F94" font-family="'ArialMT'" font-size="13.7211">Acton Town</text>
<text transform="matrix(1 0 0 1 2133.5137 975.7046)" fill="#1C3F94" font-family="'ArialMT'" font-size="13.7205"> Canning%%Town</text>
<text transform="matrix(1 0 0 1 1052.564 607.6616)" fill="#1C3F94" font-family="'ArialMT'" font-size="13.7211">Finchley Road</text>
<text transform="matrix(1 0 0 1 1684.7031 594.5562)" fill="#1C3F94" font-family="'ArialMT'" font-size="13.7205"> Highbury &amp;%%Islington</text>
<text transform="matrix(1 0 0 1 1896.6738 1099.0972)" fill="#1C3F94" font-family="'ArialMT'" font-size="13.7211">Canary Wharf</text>
<text transform="matrix(1 0 0 1 2034.9629 675.9019)" fill="#1C3F94" font-family="'ArialMT'" font-size="13.7211">Stratford</text>
<text transform="matrix(1 0 0 1 1734.3223 495.9556)" fill="#1C3F94" font-family="'ArialMT'" font-size="13.7205"> Finsbury Park</text>
<text transform="matrix(1 0 0 1 1402.6128 1360.1479)" fill="#1C3F94" font-family="'ArialMT'" font-size="13.7211">Elephant &amp; Castle</text>
<text transform="matrix(1 0 0 1 1879.832 891.3706)" fill="#1C3F94" font-family="'ArialMT'" font-size="13.7211">Stepney Green</text>
<text transform="matrix(1 0 0 1 2278.3125 731.9741)" fill="#1C3F94" font-family="'ArialMT'" font-size="13.7211">Barking</text>
<text transform="matrix(1 0 0 1 2248.9727 762.0503)" fill="#1C3F94" font-family="'ArialMT'" font-size="13.7211">East Ham</text>
<text transform="matrix(1 0 0 1 2141.1035 753.6792)" fill="#1C3F94" font-family="'ArialMT'" font-size="13.7211">Upton Park </text>
<text transform="matrix(1 0 0 1 2202.1621 809.4253)" fill="#1C3F94" font-family="'ArialMT'" font-size="13.7211">Plaistow</text>
<text transform="matrix(1 0 0 1 2001.5938 1007.3198)" fill="#1C3F94" font-family="'ArialMT'" font-size="13.7211">Poplar</text>
<text transform="matrix(1 0 0 1 2144.0742 844.1226)" fill="#1C3F94" font-family="'ArialMT'" font-size="13.7211">West Ham</text>
<text transform="matrix(1 0 0 1 1580.0645 473.2856)" fill="#1C3F94" font-family="'ArialMT'" font-size="13.7211">Upper Holloway</text>
<text transform="matrix(1 0 0 1 2069.4531 751.3784)" fill="#1C3F94" font-family="'ArialMT'" font-size="13.7205"> Pudding Mill Lane</text>
<text transform="matrix(1 0 0 1 1325.7524 1411.2085)" fill="#1C3F94" font-family="'ArialMT'" font-size="13.7211">Kennington</text>
<text transform="matrix(1 0 0 1 1461.9922 1274.9585)" fill="#1C3F94" font-family="'ArialMT'" font-size="13.7211">Borough</text>
<text transform="matrix(1 0 0 1 2434.8926 579.7964)" fill="#1C3F94" font-family="'ArialMT'" font-size="13.7211">Elm Park </text>
<text transform="matrix(1 0 0 1 2324.1211 571.2642)" fill="#1C3F94" font-family="'ArialMT'" font-size="13.7205"> Dagenham     East</text>
<text transform="matrix(1 0 0 1 2381.5625 633.1245)" fill="#1C3F94" font-family="'ArialMT'" font-size="13.7205"> Dagenham%%Heathway</text>
<text transform="matrix(1 0 0 1 2341.5117 668.4644)" fill="#1C3F94" font-family="'ArialMT'" font-size="13.7211">Becontree</text>
<text transform="matrix(1 0 0 1 2312.332 702.3628)" fill="#1C3F94" font-family="'ArialMT'" font-size="13.7211">Upney</text>
<text transform="matrix(1 0 0 1 148.6274 1412.9702)" fill="#1C3F94" font-family="'ArialMT'" font-size="13.7211">Heathrow Terminal 5</text>
<text transform="matrix(1 0 0 1 1127.7417 522.8823)" fill="#1C3F94" font-family="'ArialMT'" font-size="13.7205"> Finchley Road%%&amp; Frognal</text>
<text transform="matrix(1 0 0 1 1538.7129 396.8179)" fill="#1C3F94" font-family="'ArialMT'" font-size="13.7211">Crouch Hill</text>
<text transform="matrix(1 0 0 1 338.6743 1113.0405)" fill="#1C3F94" font-family="'ArialMT'" font-size="13.7211">Northfields</text>
<text transform="matrix(1 0 0 1 294.937 1141.6206)" fill="#1C3F94" font-family="'ArialMT'" font-size="13.7211">Boston Manor</text>
<text transform="matrix(1 0 0 1 360.5566 1084.4702)" fill="#1C3F94" font-family="'ArialMT'" font-size="13.7211">South Ealing</text>
<text transform="matrix(1 0 0 1 298.7939 1170.1909)" fill="#1C3F94" font-family="'ArialMT'" font-size="13.7211">Osterley</text>
<text transform="matrix(1 0 0 1 307.7993 1251.7104)" fill="#1C3F94" font-family="'ArialMT'" font-size="13.7211">Hounslow Central</text>
<text transform="matrix(1 0 0 1 339.229 1223.1714)" fill="#1C3F94" font-family="'ArialMT'" font-size="13.7211">Hounslow East</text>
<text transform="matrix(1 0 0 1 1150.272 1457.3101)" fill="#1C3F94" font-family="'ArialMT'" font-size="13.7211">Clapham North</text>
<text transform="matrix(1 0 0 1 1264.3823 1408.8413)" fill="#1C3F94" font-family="'ArialMT'" font-size="13.7211">Oval</text>
<text transform="matrix(1 0 0 1 1100.4219 1487.4312)" fill="#1C3F94" font-family="'ArialMT'" font-size="13.7211">Clapham Common</text>
<text transform="matrix(1 0 0 1 1090.3613 1517.5405)" fill="#1C3F94" font-family="'ArialMT'" font-size="13.7211">Clapham South</text>
<text transform="matrix(1 0 0 1 1105.4712 1547.6616)" fill="#1C3F94" font-family="'ArialMT'" font-size="13.7211">Balham</text>
<text transform="matrix(1 0 0 1 1051.8105 1577.771)" fill="#1C3F94" font-family="'ArialMT'" font-size="13.7211">Tooting Bec</text>
<text transform="matrix(1 0 0 1 984.4414 1607.8804)" fill="#1C3F94" font-family="'ArialMT'" font-size="13.7211">Tooting Broadway</text>
<text transform="matrix(1 0 0 1 976.9155 1637.9897)" fill="#1C3F94" font-family="'ArialMT'" font-size="13.7211">Colliers Wood</text>
<text transform="matrix(1 0 0 1 942.9585 1668.1108)" fill="#1C3F94" font-family="'ArialMT'" font-size="13.7211">South Wimbledon</text>
<text transform="matrix(1 0 0 1 1603.8711 504.2095)" fill="#1C3F94" font-family="'ArialMT'" font-size="13.7211">Arsenal</text>
<text transform="matrix(1 0 0 1 1529.041 534.3267)" fill="#1C3F94" font-family="'ArialMT'" font-size="13.7211">Holloway Road</text>
<text transform="matrix(1 0 0 1 1493.7808 564.439)" fill="#1C3F94" font-family="'ArialMT'" font-size="13.7211">Caledonian Road</text>
<text transform="matrix(1 0 0 1 952.478 1698.2104)" fill="#1C3F94" font-family="'ArialMT'" font-size="13.7211">Morden</text>
<text transform="matrix(1 0 0 1 1750.9004 1706.8198)" fill="#1C3F94" font-family="'ArialMT'" font-size="13.7211">West Croydon</text>
<text transform="matrix(1 0 0 1 206.1875 1235.8101)" fill="#1C3F94" font-family="'ArialMT'" font-size="13.7205"> Hounslow West</text>
<text transform="matrix(1 0 0 1 162.3843 1278.6108)" fill="#1C3F94" font-family="'ArialMT'" font-size="13.7211">Hatton Cross</text>
<text transform="matrix(1 0 0 1 109.5649 1315.1401)" fill="#1C3F94" font-family="'ArialMT'" font-size="13.7205"> Heathrow%%Terminals 1, 2, 3</text>
<text transform="matrix(1 0 0 1 1059.582 1419.2808)" fill="#1C3F94" font-family="'ArialMT'" font-size="13.7205"> Clapham%%Junction</text>
<text transform="matrix(1 0 0 1 540.7104 438.9976)" fill="#1C3F94" font-family="'ArialMT'" font-size="13.7205"> West Harrow</text>
<text transform="matrix(1 0 0 1 905.7534 609.3413)" fill="#1C3F94" font-family="'ArialMT'" font-size="13.7211">Brondesbury</text>
<text transform="matrix(1 0 0 1 1589.9336 647.9351)" fill="#1C3F94" font-family="'ArialMT'" font-size="13.7205"> Caledonian%%Road &amp;%%Barnsbury</text>
<text transform="matrix(1 0 0 1 1843.582 467.9146)" fill="#1C3F94" font-family="'ArialMT'" font-size="13.7205"> Tottenham Hale</text>
<text transform="matrix(1 0 0 1 1981.4219 467.9146)" fill="#1C3F94" font-family="'ArialMT'" font-size="13.7205"> Walthamstow Central</text>
<text transform="matrix(1 0 0 1 1982.0508 712.6685)" fill="#1C3F94" font-family="'ArialMT'" font-size="13.7205"> Hackney Wick</text>
<text transform="matrix(1 0 0 1 1900.041 712.6685)" fill="#1C3F94" font-family="'ArialMT'" font-size="13.7211">Homerton</text>
<text transform="matrix(1 0 0 1 511.376 927.5483)" fill="#1C3F94" font-family="'ArialMT'" font-size="13.7205"> West%%Acton</text>
<text transform="matrix(1 0 0 1 1880.0195 1010.6206)" fill="#1C3F94" font-family="'ArialMT'" font-size="13.7211">Limehouse</text>
<text transform="matrix(1 0 0 1 2085.0898 1011.271)" fill="#1C3F94" font-family="'ArialMT'" font-size="13.7205"> East%%India</text>
<text transform="matrix(1 0 0 1 1579.25 1671.3726)" fill="#1C3F94" font-family="'ArialMT'" font-size="13.7211">Crystal Palace</text>
<text transform="matrix(1 0 0 1 487.4385 1119.2222)" fill="#1C3F94" font-family="'ArialMT'" font-size="13.7205"> Chiswick%%Park</text>
<text transform="matrix(1 0 0 1 2155.5508 275.7749)" fill="#1C3F94" font-family="'ArialMT'" font-size="13.7205"> Roding%%Valley</text>
<text transform="matrix(1 0 0 1 2231.9902 277.8813)" fill="#1C3F94" font-family="'ArialMT'" font-size="13.7205"> Grange%%Hill</text>
<text transform="matrix(1 0 0 1 2189.2207 323.6401)" fill="#1C3F94" font-family="'ArialMT'" font-size="13.7211">Chigwell</text>
<text transform="matrix(1 0 0 1 2187.0801 474.3931)" fill="#1C3F94" font-family="'ArialMT'" font-size="13.7211">Redbridge</text>
<text transform="matrix(1 0 0 1 2238.7793 507.2983)" fill="#1C3F94" font-family="'ArialMT'" font-size="13.7205"> Gants%%Hill</text>
<text transform="matrix(1 0 0 1 2147.8906 507.2983)" fill="#1C3F94" font-family="'ArialMT'" font-size="13.7211">Wanstead</text>
<text transform="matrix(1 0 0 1 2083.8887 1114.8628)" fill="#1C3F94" font-family="'ArialMT'" font-size="13.7205"> North%%Greenwich</text>
<text transform="matrix(1 0 0 1 246.3052 353.0347)" fill="#1C3F94" font-family="'ArialMT'" font-size="13.7211">Ickenham</text>
<text transform="matrix(1 0 0 1 563.1265 1119.4038)" fill="#1C3F94" font-family="'ArialMT'" font-size="13.7205"> Turnham%%Green</text>
<text transform="matrix(1 0 0 1 121.7422 351.9683)" fill="#1C3F94" font-family="'ArialMT'" font-size="13.7211">Uxbridge</text>
<text transform="matrix(1 0 0 1 187.9614 313.814)" fill="#1C3F94" font-family="'ArialMT'" font-size="13.7211">Hillingdon</text>
<text transform="matrix(1 0 0 1 341.0063 312.5845)" fill="#1C3F94" font-family="'ArialMT'" font-size="13.7211">Ruislip</text>
<text transform="matrix(1 0 0 1 1343.7539 455.6245)" fill="#1C3F94" font-family="'ArialMT'" font-size="13.7205"> Gospel%%Oak</text>
<text transform="matrix(1 0 0 1 1926.7949 787.1558)" fill="#1C3F94" font-family="'ArialMT'" font-size="13.7211">Mile End</text>
<text transform="matrix(1 0 0 1 2026.4863 812.7515)" fill="#1C3F94" font-family="'ArialMT'" font-size="13.7211">Bow Road</text>
<text transform="matrix(1 0 0 1 2070.6953 848.8599)" fill="#1C3F94" font-family="'ArialMT'" font-size="13.7205"> Bromley-by-Bow</text>
<text transform="matrix(1 0 0 1 2432.8242 473.8101)" fill="#1C3F94" font-family="'ArialMT'" font-size="13.7211">Upminster</text>
<text transform="matrix(1 0 0 1 2364.5547 503.9224)" fill="#1C3F94" font-family="'ArialMT'" font-size="13.7211">Upminster Bridge</text>
<text transform="matrix(1 0 0 1 2368.6152 534.0347)" fill="#1C3F94" font-family="'ArialMT'" font-size="13.7211">Hornchurch</text>
<text transform="matrix(1 0 0 1 1750.5039 1674.0249)" fill="#1C3F94" font-family="'ArialMT'" font-size="13.7211">Norwood Junction</text>
<text transform="matrix(1 0 0 1 1661.4141 1569.3452)" fill="#1C3F94" font-family="'ArialMT'" font-size="13.7211">Sydenham</text>
<text transform="matrix(1 0 0 1 1662.0645 1536.5444)" fill="#1C3F94" font-family="'ArialMT'" font-size="13.7211">Forest Hill</text>
<text transform="matrix(1 0 0 1 1752.0352 1641.2144)" fill="#1C3F94" font-family="'ArialMT'" font-size="13.7211">Anerley</text>
<text transform="matrix(1 0 0 1 1748.9062 1608.4038)" fill="#1C3F94" font-family="'ArialMT'" font-size="13.7211">Penge West</text>
<text transform="matrix(1 0 0 1 1631.0449 1503.7437)" fill="#1C3F94" font-family="'ArialMT'" font-size="13.7211">Honor Oak Park </text>
<text transform="matrix(1 0 0 1 1674.3262 1430.3647)" fill="#1C3F94" font-family="'ArialMT'" font-size="13.7211">Brockely</text>
<text transform="matrix(1 0 0 1 675.8022 333.3228)" fill="#1C3F94" font-family="'ArialMT'" font-size="13.7205"> Harrow &amp;%%Wealdstone</text>
<text transform="matrix(1 0 0 1 2026.2637 1335.6655)" fill="#1C3F94" font-family="'ArialMT'" font-size="13.7205">Cutty Sark for%%Maritime Greenwich</text>
<text transform="matrix(1 0 0 1 400.0464 327.7349)" fill="#1C3F94" font-family="'ArialMT'" font-size="13.7205"> Ruislip%%Manor</text>
<text transform="matrix(1 0 0 1 442.6572 363.8276)" fill="#1C3F94" font-family="'ArialMT'" font-size="13.7211">Eastcote</text>
<text transform="matrix(1 0 0 1 1851.2539 1043.0249)" fill="#1C3F94" font-family="'ArialMT'" font-size="13.7243">Wapping</text>
<text transform="matrix(1 0 0 1 1849.4434 963.98)" fill="#1C3F94" font-family="'ArialMT'" font-size="13.7243">Shadwell</text>
<text transform="matrix(1 0 0 1 1854.4238 1362.4956)" fill="#1C3F94" font-family="'ArialMT'" font-size="13.7243">New Cross</text>
<text transform="matrix(1 0 0 1 1786.1836 1125.855)" fill="#1C3F94" font-family="'ArialMT'" font-size="13.7205"> Canada%%Water</text>
<text transform="matrix(1 0 0 1 1748.8125 1195.3452)" fill="#1C3F94" font-family="'ArialMT'" font-size="13.7243">Surrey Quays</text>
<text transform="matrix(1 0 0 1 1850.2324 924.064)" fill="#1C3F94" font-family="'ArialMT'" font-size="13.7243">Whitechapel</text>
<text transform="matrix(1 0 0 1 2006.3242 1461.8843)" fill="#1C3F94" font-family="'ArialMT'" font-size="13.7211">Lewisham</text>
<text transform="matrix(1 0 0 1 690.1104 692.1724)" fill="#1C3F94" font-family="'ArialMT'" font-size="13.7311">Kilburn Park</text>
<text transform="matrix(1 0 0 1 1178.4048 815.0806)" fill="#1C3F94" font-family="'ArialMT'" font-size="13.7311">Regent’s Park</text>
<text transform="matrix(1 0 0 1 875.3823 656.2827)" fill="#1C3F94" font-family="'ArialMT'" font-size="13.7205">Kilburn%%High Road</text>
<text transform="matrix(1 0 0 1 949.6655 704.1421)" fill="#1C3F94" font-family="'ArialMT'" font-size="13.7205">Edgware%%Road</text>
<text transform="matrix(1 0 0 1 963.9385 656.2827)" fill="#1C3F94" font-family="'ArialMT'" font-size="13.7205">South%%Hampstead</text>
<text transform="matrix(1 0 0 1 1256.3745 860.6538)" fill="#1C3F94" font-family="'ArialMT'" font-size="13.7205">Goodge%%Street</text>
<text transform="matrix(1 0 0 1 650.2266 986.1851)" fill="#1C3F94" font-family="'ArialMT'" font-size="13.7205">Shepherd’s Bush%%Market</text>
<text transform="matrix(1 0 0 1 654.7407 1032.564)" fill="#1C3F94" font-family="'ArialMT'" font-size="13.7205">Goldhawk Road</text>
<text transform="matrix(1 0 0 1 664.9448 1070.6655)" fill="#1C3F94" font-family="'ArialMT'" font-size="13.7205">Hammersmith</text>
<text transform="matrix(1 0 0 1 942.4321 835.2202)" fill="#1C3F94" font-family="'ArialMT'" font-size="13.7205">Bayswater</text>
<text transform="matrix(1 0 0 1 1225.9844 783.2974)" fill="#1C3F94" font-family="'ArialMT'" font-size="13.7205">Warren Street</text>
<text transform="matrix(1 0 0 1 1688.1445 944.3999)" fill="#1C3F94" font-family="'ArialMT'" font-size="13.7205">Aldgate</text>
<text transform="matrix(1 0 0 1 1272.7637 723.3599)" fill="#1C3F94" font-family="'ArialMT'" font-size="13.7205">Euston</text>
<text transform="matrix(1 0 0 1 1440.563 806.8198)" fill="#1C3F94" font-family="'ArialMT'" font-size="13.7205">Farringdon</text>
<text transform="matrix(1 0 0 1 1487.6138 844.2349)" fill="#1C3F94" font-family="'ArialMT'" font-size="13.7205">Barbican</text>
<text transform="matrix(1 0 0 1 1350.1533 829.396)" fill="#1C3F94" font-family="'ArialMT'" font-size="13.7205">Russell%%Square</text>
<text transform="matrix(1 0 0 1 781.6841 1008.1948)" fill="#1C3F94" font-family="'ArialMT'" font-size="13.7205">Kensington%%(Olympia)</text>
<text transform="matrix(1 0 0 1 1285.8237 659.3452)" fill="#1C3F94" font-family="'ArialMT'" font-size="13.7205">Mornington%%Crescent</text>
<text transform="matrix(1 0 0 1 942.0439 963.7896)" fill="#1C3F94" font-family="'ArialMT'" font-size="13.7205">High Street%%Kensington</text>
<text transform="matrix(1 0 0 1 1601.6152 777.5737)" fill="#1C3F94" font-family="'ArialMT'" font-size="13.7205">Old Street</text>
<text transform="matrix(1 0 0 1 1107.8843 656.855)" fill="#1C3F94" font-family="'ArialMT'" font-size="13.7205">St. John’s Wood</text>
<text transform="matrix(1 0 0 1 1164.9937 967.7651)" fill="#1C3F94" font-family="'ArialMT'" font-size="13.7205">Green Park</text>
<text transform="matrix(1 0 0 1 1144.4443 736.3452)" fill="#1C3F94" font-family="'ArialMT'" font-size="13.7205">Baker%%Street</text>
<text transform="matrix(1 0 0 1 928.293 883.9458)" fill="#1C3F94" font-family="'ArialMT'" font-size="13.7205">Notting%%Hill Gate</text>
<text transform="matrix(1 0 0 1 1092.4854 1084.4663)" fill="#1C3F94" font-family="'ArialMT'" font-size="13.7205">Victoria</text>
<text transform="matrix(1 0 0 1 1758.6113 901.8062)" fill="#1C3F94" font-family="'ArialMT'" font-size="13.7205">Aldgate East</text>
<text transform="matrix(1 0 0 1 1419.1143 1056.4956)" fill="#1C3F94" font-family="'ArialMT'" font-size="13.7205">Blackfriars</text>
<text transform="matrix(1 0 0 1 1415.5142 1030.3452)" fill="#1C3F94" font-family="'ArialMT'" font-size="13.7205">Mansion House</text>
<text transform="matrix(1 0 0 1 1448.7437 1004.187)" fill="#1C3F94" font-family="'ArialMT'" font-size="13.7205">Cannon Street</text>
<text transform="matrix(1 0 0 1 1144.5732 883.9604)" fill="#1C3F94" font-family="'ArialMT'" font-size="13.7205">Oxford%%Circus</text>
<text transform="matrix(1 0 0 1 1069.5327 883.8521)" fill="#1C3F94" font-family="'ArialMT'" font-size="13.7205">Bond%%Street</text>
<text transform="matrix(1 0 0 1 1670.1426 1025.0171)" fill="#1C3F94" font-family="'ArialMT'" font-size="13.7205">Tower%%Hill</text>
<text transform="matrix(1 0 0 1 1192.2622 1118.5874)" fill="#1C3F94" font-family="'ArialMT'" font-size="13.7205">Westminster</text>
<text transform="matrix(1 0 0 1 1248.1416 926.3384)" fill="#1C3F94" font-family="'ArialMT'" font-size="13.7205">Tottenham%%Court Road</text>
<text transform="matrix(1 0 0 1 1205.0015 999.6538)" fill="#1C3F94" font-family="'ArialMT'" font-size="13.7205">Piccadilly%%Circus</text>
<text transform="matrix(1 0 0 1 1263.7915 1045.7769)" fill="#1C3F94" font-family="'ArialMT'" font-size="13.7205">Charing%%Cross</text>
<text transform="matrix(1 0 0 1 1395.2007 916.3384)" fill="#1C3F94" font-family="'ArialMT'" font-size="13.7205">Holborn</text>
<text transform="matrix(1 0 0 1 1755.4414 1037.7866)" fill="#1C3F94" font-family="'ArialMT'" font-size="13.7205">Tower%%Gateway</text>
<text transform="matrix(1 0 0 1 1594.9004 1016.647)" fill="#1C3F94" font-family="'ArialMT'" font-size="13.7205">Monument</text>
<text transform="matrix(1 0 0 1 1595.4512 867.396)" fill="#1C3F94" font-family="'ArialMT'" font-size="13.7205">Moorgate</text>
<text transform="matrix(1 0 0 1 1345.042 975.1226)" fill="#1C3F94" font-family="'ArialMT'" font-size="13.7205">Leicester Square</text>
<text transform="matrix(1 0 0 1 1587.3027 1138.4468)" fill="#1C3F94" font-family="'ArialMT'" font-size="13.7205">London%%Bridge </text>
<text transform="matrix(1 0 0 1 1500.2715 907.8823)" fill="#1C3F94" font-family="'ArialMT'" font-size="13.7205">St. Paul’s</text>
<text transform="matrix(1 0 0 1 989.2388 1000.3374)" fill="#1C3F94" font-family="'ArialMT'" font-size="13.7205">Hyde Park Corner</text>
<text transform="matrix(1 0 0 1 984.6001 1026.8179)" fill="#1C3F94" font-family="'ArialMT'" font-size="13.7205">Knightsbridge</text>
<text transform="matrix(1 0 0 1 622.8711 1119.2085)" fill="#1C3F94" font-family="'ArialMT'" font-size="13.7205">Stamford%%Brook</text>
<text transform="matrix(1 0 0 1 683.3662 1119.2085)" fill="#1C3F94" font-family="'ArialMT'" font-size="13.7205">Ravenscourt%%Park</text>
<text transform="matrix(1 0 0 1 823.3809 1119.2085)" fill="#1C3F94" font-family="'ArialMT'" font-size="13.7205">West%%Kensington</text>
<text transform="matrix(1 0 0 1 610.9263 927.5464)" fill="#1C3F94" font-family="'ArialMT'" font-size="13.7205">North%%Acton</text>
<text transform="matrix(1 0 0 1 852.1147 917.5464)" fill="#1C3F94" font-family="'ArialMT'" font-size="13.7205">Holland%%Park</text>
<text transform="matrix(1 0 0 1 1011.0435 714.5503)" fill="#1C3F94" font-family="'ArialMT'" font-size="13.7205">Marylebone</text>
<text transform="matrix(1 0 0 1 1503.7129 753.1284)" fill="#1C3F94" font-family="'ArialMT'" font-size="13.7205">Angel</text>
<text transform="matrix(1 0 0 1 954.1445 917.062)" fill="#1C3F94" font-family="'ArialMT'" font-size="13.7205">Queensway</text>
<text transform="matrix(1 0 0 1 982.71 1121.3687)" fill="#1C3F94" font-family="'ArialMT'" font-size="13.7205">South%%Kensington</text>
<text transform="matrix(1 0 0 1 893.5273 1121.3687)" fill="#1C3F94" font-family="'ArialMT'" font-size="13.7205">Earl’s%%Court</text>
<text transform="matrix(1 0 0 1 1060.3921 1119.2476)" fill="#1C3F94" font-family="'ArialMT'" font-size="13.7205">Sloane%%Square</text>
<text transform="matrix(1 0 0 1 1370.1011 945.7612)" fill="#1C3F94" font-family="'ArialMT'" font-size="13.7205">Covent Garden</text>
<text transform="matrix(1 0 0 1 1665.5508 816.6724)" fill="#1C3F94" font-family="'ArialMT'" font-size="13.7205">Liverpool%%Street</text>
<text transform="matrix(1 0 0 1 1211.1016 728.4517)" fill="#1C3F94" font-family="'ArialMT'" font-size="13.7205">Great%%Portland%%Street</text>
<text transform="matrix(1 0 0 1 1552.5215 928.5767)" fill="#1C3F94" font-family="'ArialMT'" font-size="13.7205">Bank</text>
<text transform="matrix(1 0 0 1 668.5234 871.3335)" fill="#1C3F94" font-family="'ArialMT'" font-size="13.7205">East%%Acton</text>
<text transform="matrix(1 0 0 1 1427.1406 876.7554)" fill="#1C3F94" font-family="'ArialMT'" font-size="13.7205">Chancery%%Lane</text>
<text transform="matrix(1 0 0 1 1007.6011 881.8813)" fill="#1C3F94" font-family="'ArialMT'" font-size="13.7205">Lancaster%%Gate</text>
<text transform="matrix(1 0 0 1 699.9922 730.1206)" fill="#1C3F94" font-family="'ArialMT'" font-size="13.7311">Warwick Avenue</text>
<text transform="matrix(1 0 0 1 716.6992 711.3062)" fill="#1C3F94" font-family="'ArialMT'" font-size="13.7205">Maida Vale </text>
<text transform="matrix(1 0 0 1 853.8096 714.7612)" fill="#1C3F94" font-family="'ArialMT'" font-size="13.7205">Paddington</text>
<text transform="matrix(1 0 0 1 789.8198 1056.9448)" fill="#1C3F94" font-family="'ArialMT'" font-size="13.7205">Baron’s Court</text>
<text transform="matrix(1 0 0 1 937.4785 1056.7358)" fill="#1C3F94" font-family="'ArialMT'" font-size="13.7205">Gloucester%%Road</text>
<text transform="matrix(1 0 0 1 1156.6636 1067.3745)" fill="#1C3F94" font-family="'ArialMT'" font-size="13.7205">St. James’s%%Park</text>
<text transform="matrix(1 0 0 1 1381.4531 1080.6851)" fill="#1C3F94" font-family="'ArialMT'" font-size="13.7205">Temple</text>
<text transform="matrix(1 0 0 1 780.8276 847.687)" fill="#1C3F94" font-family="'ArialMT'" font-size="13.7205">Latimer Road </text>
<text transform="matrix(1 0 0 1 803.417 825.0913)" fill="#1C3F94" font-family="'ArialMT'" font-size="13.7205">Ladbroke Grove</text>
<text transform="matrix(1 0 0 1 765.9268 755.6851)" fill="#1C3F94" font-family="'ArialMT'" font-size="13.7205">Royal Oak</text>
<text transform="matrix(1 0 0 1 697.8228 780.3599)" fill="#1C3F94" font-family="'ArialMT'" font-size="13.7205">Westbourne Park</text>
<text transform="matrix(1 0 0 1 1681.9141 1131.605)" fill="#1C3F94" font-family="'ArialMT'" font-size="13.7237">Bermondsey</text>
<text transform="matrix(1 0 0 1 1756.2051 1090.3745)" fill="#1C3F94" font-family="'ArialMT'" font-size="13.7237">Rotherhithe</text>
<text transform="matrix(1 0 0 1 1761.4844 822.4253)" fill="#1C3F94" font-family="'ArialMT'" font-size="13.7205"> Shoreditch High Street</text>
<text transform="matrix(1 0 0 1 1722.6758 659.7378)" fill="#1C3F94" font-family="'ArialMT'" font-size="13.7237">Dalston Junction</text>
<text transform="matrix(1 0 0 1 1757.4453 709.1558)" fill="#1C3F94" font-family="'ArialMT'" font-size="13.7237">Haggerston</text>
<text transform="matrix(1 0 0 1 1781.666 758.5698)" fill="#1C3F94" font-family="'ArialMT'" font-size="13.7237">Hoxton</text>
<text transform="matrix(1 0 0 1 685.4492 940.5767)" fill="#1C3F94" font-family="'ArialMT'" font-size="13.717">Wood Lane</text>
<text transform="matrix(1 0 0 1 791.8657 879.4976)" fill="#1C3F94" font-family="'ArialMT'" font-size="13.7205"> Shepherd’s%%Bush</text>
<text transform="matrix(1 0 0 1 715.8872 869.7573)" fill="#1C3F94" font-family="'ArialMT'" font-size="13.7205"> White%%City</text>
<text transform="matrix(1 0 0 1 1398.7744 682.6167)" fill="#1C3F94" font-family="'ArialMT'" font-size="13.7205">King’s Cross%%St. Pancras</text>
<text transform="matrix(1 0 0 1 1349.8145 780.5767)" fill="#1C3F94" font-family="'ArialMT'" font-size="13.7205">Euston%%Square</text>
<text transform="matrix(1 0 0 1 982.7212 789.978)" fill="#1C3F94" font-family="'ArialMT'" font-size="13.7205">Edgware%%Road</text>
<text transform="matrix(1 0 0 1 1233.7144 1167.7651)" fill="#1C3F94" font-family="'ArialMT'" font-size="13.7211">Waterloo</text>
<text transform="matrix(1 0 0 1 1371.5142 1222.0054)" fill="#1C3F94" font-family="'ArialMT'" font-size="13.7211">Southwark</text>
<text transform="matrix(1 0 0 1 1356.7544 1120.8647)" fill="#1C3F94" font-family="'ArialMT'" font-size="13.7205">Embankment</text>
<text transform="matrix(1 0 0 1 1073.6084 916.062)" fill="#1C3F94" font-family="'ArialMT'" font-size="13.7205">Marble%%Arch</text>
</svg>
